<svg xmlns="http://www.w3.org/2000/svg" xmlns:xlink="http://www.w3.org/1999/xlink" viewBox="0 0 67.17 53.59"><defs><style>.cls-1{isolation:isolate;}.cls-10,.cls-100,.cls-101,.cls-102,.cls-103,.cls-104,.cls-105,.cls-106,.cls-107,.cls-108,.cls-109,.cls-11,.cls-110,.cls-111,.cls-112,.cls-113,.cls-114,.cls-115,.cls-116,.cls-117,.cls-118,.cls-119,.cls-12,.cls-120,.cls-121,.cls-122,.cls-123,.cls-124,.cls-125,.cls-126,.cls-127,.cls-128,.cls-13,.cls-130,.cls-132,.cls-133,.cls-134,.cls-136,.cls-14,.cls-15,.cls-16,.cls-17,.cls-18,.cls-19,.cls-2,.cls-20,.cls-21,.cls-22,.cls-23,.cls-24,.cls-25,.cls-26,.cls-27,.cls-28,.cls-29,.cls-3,.cls-30,.cls-31,.cls-32,.cls-33,.cls-34,.cls-35,.cls-36,.cls-37,.cls-38,.cls-39,.cls-4,.cls-40,.cls-41,.cls-42,.cls-43,.cls-44,.cls-45,.cls-46,.cls-47,.cls-48,.cls-49,.cls-5,.cls-50,.cls-51,.cls-52,.cls-53,.cls-54,.cls-55,.cls-56,.cls-57,.cls-58,.cls-59,.cls-6,.cls-60,.cls-61,.cls-62,.cls-63,.cls-64,.cls-65,.cls-66,.cls-67,.cls-68,.cls-7,.cls-71,.cls-72,.cls-73,.cls-74,.cls-75,.cls-76,.cls-77,.cls-78,.cls-79,.cls-8,.cls-80,.cls-81,.cls-82,.cls-83,.cls-84,.cls-85,.cls-86,.cls-87,.cls-88,.cls-89,.cls-9,.cls-90,.cls-91,.cls-92,.cls-93,.cls-94,.cls-95,.cls-96,.cls-97,.cls-98,.cls-99{fill-rule:evenodd;}.cls-2{fill:url(#radial-gradient);}.cls-10,.cls-100,.cls-110,.cls-118,.cls-17,.cls-27,.cls-3,.cls-32,.cls-41,.cls-47,.cls-57,.cls-65,.cls-7,.cls-80,.cls-85,.cls-94{mix-blend-mode:multiply;}.cls-3{fill:url(#radial-gradient-2);}.cls-4{fill:url(#radial-gradient-3);}.cls-5{fill:#5b1500;}.cls-6{fill:url(#radial-gradient-4);}.cls-7{fill:url(#radial-gradient-5);}.cls-8{fill:url(#radial-gradient-6);}.cls-9{fill:url(#linear-gradient);}.cls-10{fill:url(#radial-gradient-7);}.cls-11{fill:url(#linear-gradient-2);}.cls-12{fill:url(#linear-gradient-3);}.cls-13{fill:#fff6b8;}.cls-101,.cls-102,.cls-103,.cls-104,.cls-105,.cls-108,.cls-111,.cls-112,.cls-115,.cls-116,.cls-119,.cls-120,.cls-126,.cls-128,.cls-129,.cls-13,.cls-130,.cls-133,.cls-134,.cls-135,.cls-136,.cls-14,.cls-15,.cls-16,.cls-18,.cls-19,.cls-21,.cls-24,.cls-25,.cls-26,.cls-28,.cls-33,.cls-34,.cls-35,.cls-36,.cls-39,.cls-42,.cls-44,.cls-48,.cls-49,.cls-50,.cls-51,.cls-52,.cls-55,.cls-58,.cls-59,.cls-62,.cls-63,.cls-66,.cls-67,.cls-72,.cls-74,.cls-77,.cls-78,.cls-79,.cls-81,.cls-86,.cls-87,.cls-88,.cls-89,.cls-92,.cls-95,.cls-97{mix-blend-mode:screen;}.cls-14{fill:url(#linear-gradient-4);}.cls-15{fill:url(#linear-gradient-5);}.cls-16{fill:url(#radial-gradient-8);}.cls-17{fill:url(#radial-gradient-9);}.cls-18{fill:url(#New_Gradient_Swatch_94);}.cls-19{fill:url(#New_Gradient_Swatch_94-2);}.cls-20{fill:url(#linear-gradient-6);}.cls-21{fill:url(#New_Gradient_Swatch_94-3);}.cls-22{fill:url(#linear-gradient-7);}.cls-23{fill:url(#linear-gradient-8);}.cls-24{fill:url(#New_Gradient_Swatch_94-4);}.cls-25{fill:url(#New_Gradient_Swatch_94-5);}.cls-26{fill:url(#New_Gradient_Swatch_94-6);}.cls-27{fill:url(#radial-gradient-10);}.cls-28{fill:url(#radial-gradient-11);}.cls-29{fill:url(#linear-gradient-9);}.cls-30{fill:url(#linear-gradient-10);}.cls-31{fill:url(#linear-gradient-11);}.cls-32{fill:url(#radial-gradient-12);}.cls-33{fill:url(#New_Gradient_Swatch_94-7);}.cls-34{fill:url(#radial-gradient-13);}.cls-35{fill:url(#New_Gradient_Swatch_94-8);}.cls-36{fill:url(#New_Gradient_Swatch_94-9);}.cls-37{fill:url(#linear-gradient-12);}.cls-38{fill:url(#linear-gradient-13);}.cls-39{fill:url(#New_Gradient_Swatch_94-10);}.cls-40{fill:url(#linear-gradient-14);}.cls-41{fill:url(#radial-gradient-14);}.cls-42{fill:url(#radial-gradient-15);}.cls-43{fill:url(#linear-gradient-15);}.cls-44{fill:url(#radial-gradient-16);}.cls-45{fill:url(#linear-gradient-16);}.cls-46{fill:url(#linear-gradient-17);}.cls-47{fill:url(#radial-gradient-17);}.cls-48{fill:url(#radial-gradient-18);}.cls-49{fill:url(#radial-gradient-19);}.cls-50{fill:url(#New_Gradient_Swatch_94-11);}.cls-51{fill:url(#New_Gradient_Swatch_94-12);}.cls-52{fill:url(#New_Gradient_Swatch_94-13);}.cls-53{fill:url(#linear-gradient-18);}.cls-54{fill:url(#linear-gradient-19);}.cls-55{fill:url(#New_Gradient_Swatch_94-14);}.cls-56{fill:url(#linear-gradient-20);}.cls-57{fill:url(#radial-gradient-20);}.cls-58{fill:url(#radial-gradient-21);}.cls-59{fill:url(#New_Gradient_Swatch_94-15);}.cls-60{fill:url(#linear-gradient-21);}.cls-61{fill:url(#linear-gradient-22);}.cls-62{fill:url(#New_Gradient_Swatch_94-16);}.cls-63{fill:url(#New_Gradient_Swatch_94-17);}.cls-64{fill:url(#linear-gradient-23);}.cls-65{fill:url(#radial-gradient-22);}.cls-66{fill:url(#New_Gradient_Swatch_94-18);}.cls-67{fill:url(#radial-gradient-23);}.cls-68{fill:url(#linear-gradient-24);}.cls-69{fill:#400;}.cls-70{fill:url(#New_Gradient_Swatch_99);}.cls-71{fill:url(#New_Gradient_Swatch_106);}.cls-72{fill:url(#New_Gradient_Swatch_103);}.cls-73{fill:url(#linear-gradient-25);}.cls-74{fill:url(#New_Gradient_Swatch_94-19);}.cls-75{fill:url(#linear-gradient-26);}.cls-76{fill:url(#linear-gradient-27);}.cls-77{fill:url(#New_Gradient_Swatch_94-20);}.cls-78{fill:url(#New_Gradient_Swatch_94-21);}.cls-79{fill:url(#New_Gradient_Swatch_94-22);}.cls-80{fill:url(#radial-gradient-24);}.cls-81{fill:url(#radial-gradient-25);}.cls-82{fill:url(#linear-gradient-28);}.cls-83{fill:url(#linear-gradient-29);}.cls-84{fill:url(#linear-gradient-30);}.cls-85{fill:url(#radial-gradient-26);}.cls-86{fill:url(#New_Gradient_Swatch_94-23);}.cls-87{fill:url(#radial-gradient-27);}.cls-88{fill:url(#New_Gradient_Swatch_94-24);}.cls-89{fill:url(#New_Gradient_Swatch_94-25);}.cls-90{fill:url(#linear-gradient-31);}.cls-91{fill:url(#linear-gradient-32);}.cls-92{fill:url(#New_Gradient_Swatch_94-26);}.cls-93{fill:url(#linear-gradient-33);}.cls-94{fill:url(#radial-gradient-28);}.cls-95{fill:url(#radial-gradient-29);}.cls-96{fill:url(#linear-gradient-34);}.cls-97{fill:url(#radial-gradient-30);}.cls-98{fill:url(#linear-gradient-35);}.cls-99{fill:url(#linear-gradient-36);}.cls-100{fill:url(#radial-gradient-31);}.cls-101{fill:url(#radial-gradient-32);}.cls-102{fill:url(#radial-gradient-33);}.cls-103{fill:url(#New_Gradient_Swatch_94-27);}.cls-104{fill:url(#New_Gradient_Swatch_94-28);}.cls-105{fill:url(#New_Gradient_Swatch_94-29);}.cls-106{fill:url(#linear-gradient-37);}.cls-107{fill:url(#linear-gradient-38);}.cls-108{fill:url(#New_Gradient_Swatch_94-30);}.cls-109{fill:url(#linear-gradient-39);}.cls-110{fill:url(#radial-gradient-34);}.cls-111{fill:url(#radial-gradient-35);}.cls-112{fill:url(#New_Gradient_Swatch_94-31);}.cls-113{fill:url(#linear-gradient-40);}.cls-114{fill:url(#linear-gradient-41);}.cls-115{fill:url(#New_Gradient_Swatch_94-32);}.cls-116{fill:url(#New_Gradient_Swatch_94-33);}.cls-117{fill:url(#linear-gradient-42);}.cls-118{fill:url(#radial-gradient-36);}.cls-119{fill:url(#New_Gradient_Swatch_94-34);}.cls-120{fill:url(#radial-gradient-37);}.cls-121{fill:url(#linear-gradient-43);}.cls-122{fill:url(#radial-gradient-38);}.cls-123{fill:url(#radial-gradient-39);}.cls-124{fill:url(#radial-gradient-40);}.cls-125{fill:#fff;opacity:0.75;}.cls-126{fill:url(#radial-gradient-41);}.cls-127{fill:url(#radial-gradient-42);}.cls-128{fill:url(#radial-gradient-43);}.cls-129{fill:url(#radial-gradient-44);}.cls-130{fill:url(#radial-gradient-45);}.cls-131{fill:url(#radial-gradient-46);}.cls-132{fill:url(#radial-gradient-47);}.cls-133{fill:url(#radial-gradient-48);}.cls-134{fill:url(#radial-gradient-49);}.cls-135{fill:url(#radial-gradient-50);}.cls-136{fill:url(#radial-gradient-51);}</style><radialGradient id="radial-gradient" cx="198.22" cy="82.98" r="18.51" gradientUnits="userSpaceOnUse"><stop offset="0" stop-color="#7d0000"/><stop offset="1" stop-color="red"/></radialGradient><radialGradient id="radial-gradient-2" cx="201.84" cy="70.59" r="24.8" gradientUnits="userSpaceOnUse"><stop offset="0.71" stop-color="#900"/><stop offset="0.75" stop-color="#9b0404"/><stop offset="0.78" stop-color="#9f1010"/><stop offset="0.82" stop-color="#a82424"/><stop offset="0.86" stop-color="#b34141"/><stop offset="0.89" stop-color="#c26666"/><stop offset="0.93" stop-color="#d49393"/><stop offset="0.97" stop-color="#e8c7c7"/><stop offset="1" stop-color="#fff"/></radialGradient><radialGradient id="radial-gradient-3" cx="192.95" cy="85.67" r="12.33" gradientUnits="userSpaceOnUse"><stop offset="0" stop-color="#e8aa00"/><stop offset="1" stop-color="#fff8b0"/></radialGradient><radialGradient id="radial-gradient-4" cx="21.57" cy="82.98" r="18.51" gradientTransform="matrix(-1, 0, 0, 1, 240.34, 0)" xlink:href="#radial-gradient"/><radialGradient id="radial-gradient-5" cx="25.19" cy="70.59" r="24.8" gradientTransform="matrix(-1, 0, 0, 1, 240.34, 0)" xlink:href="#radial-gradient-2"/><radialGradient id="radial-gradient-6" cx="16.3" cy="85.67" r="12.33" gradientTransform="matrix(-1, 0, 0, 1, 240.34, 0)" xlink:href="#radial-gradient-3"/><linearGradient id="linear-gradient" x1="208.49" y1="90.5" x2="208.49" y2="47.6" gradientUnits="userSpaceOnUse"><stop offset="0" stop-color="#ed8200"/><stop offset="1" stop-color="#fa0"/></linearGradient><radialGradient id="radial-gradient-7" cx="208.64" cy="64.65" r="40.52" gradientUnits="userSpaceOnUse"><stop offset="0" stop-color="#fff"/><stop offset="1" stop-color="#e3a539"/></radialGradient><linearGradient id="linear-gradient-2" x1="208.49" y1="92.51" x2="208.49" y2="45.58" gradientUnits="userSpaceOnUse"><stop offset="0" stop-color="#f0a324"/><stop offset="1" stop-color="#995e00"/></linearGradient><linearGradient id="linear-gradient-3" x1="208.49" y1="92.51" x2="208.49" y2="45.58" gradientUnits="userSpaceOnUse"><stop offset="0" stop-color="#b56700"/><stop offset="1" stop-color="#ffd97a"/></linearGradient><linearGradient id="linear-gradient-4" x1="208.49" y1="92.51" x2="208.49" y2="69.05" gradientUnits="userSpaceOnUse"><stop offset="0" stop-color="#d1a14d"/><stop offset="1"/></linearGradient><linearGradient id="linear-gradient-5" x1="208.49" y1="69.05" x2="208.49" y2="42.66" gradientUnits="userSpaceOnUse"><stop offset="0"/><stop offset="1" stop-color="#d1a14d"/></linearGradient><radialGradient id="radial-gradient-8" cx="208.49" cy="89.62" r="24.62" gradientUnits="userSpaceOnUse"><stop offset="0" stop-color="#ffd58c"/><stop offset="1" stop-color="#d1a14d"/></radialGradient><radialGradient id="radial-gradient-9" cx="208.49" cy="56.02" r="22.27" gradientUnits="userSpaceOnUse"><stop offset="0" stop-color="#fff"/><stop offset="0.11" stop-color="#f8e7cb"/><stop offset="0.21" stop-color="#f1d39f"/><stop offset="0.32" stop-color="#ecc27a"/><stop offset="0.43" stop-color="#e8b65d"/><stop offset="0.54" stop-color="#e5ac49"/><stop offset="0.64" stop-color="#e4a73d"/><stop offset="0.75" stop-color="#e3a539"/></radialGradient><radialGradient id="New_Gradient_Swatch_94" cx="210.04" cy="31.3" r="43.92" gradientUnits="userSpaceOnUse"><stop offset="0" stop-color="#ffd58c"/><stop offset="0" stop-color="#ffef8f"/><stop offset="1"/></radialGradient><radialGradient id="New_Gradient_Swatch_94-2" cx="208.29" cy="33" r="29.17" xlink:href="#New_Gradient_Swatch_94"/><linearGradient id="linear-gradient-6" x1="186.87" y1="84.81" x2="186.87" y2="55.8" xlink:href="#linear-gradient-3"/><radialGradient id="New_Gradient_Swatch_94-3" cx="179.92" cy="58.42" r="28.73" xlink:href="#New_Gradient_Swatch_94"/><linearGradient id="linear-gradient-7" x1="178.17" y1="71.42" x2="178.17" y2="63.92" gradientUnits="userSpaceOnUse"><stop offset="0" stop-color="#eb9e21"/><stop offset="1" stop-color="#ffdb59"/></linearGradient><linearGradient id="linear-gradient-8" x1="174.91" y1="67.67" x2="181.19" y2="67.67" gradientUnits="userSpaceOnUse"><stop offset="0" stop-color="#ffb438"/><stop offset="1" stop-color="#c77a00"/></linearGradient><radialGradient id="New_Gradient_Swatch_94-4" cx="174.19" cy="63.97" r="4.53" xlink:href="#New_Gradient_Swatch_94"/><radialGradient id="New_Gradient_Swatch_94-5" cx="177.16" cy="64.32" r="4.29" xlink:href="#New_Gradient_Swatch_94"/><radialGradient id="New_Gradient_Swatch_94-6" cx="178.64" cy="65.32" r="4.47" xlink:href="#New_Gradient_Swatch_94"/><radialGradient id="radial-gradient-10" cx="177.37" cy="65.24" r="10.56" gradientUnits="userSpaceOnUse"><stop offset="0.44" stop-color="#fff"/><stop offset="1" stop-color="#cfa04d"/></radialGradient><radialGradient id="radial-gradient-11" cx="175.92" cy="67.67" r="3.91" gradientUnits="userSpaceOnUse"><stop offset="0" stop-color="#ffbe4d"/><stop offset="0" stop-color="#ffef8f"/><stop offset="1"/></radialGradient><linearGradient id="linear-gradient-9" x1="181.43" y1="71.76" x2="174.59" y2="64.35" gradientUnits="userSpaceOnUse"><stop offset="0" stop-color="#f7a334"/><stop offset="1" stop-color="#fff39c"/></linearGradient><linearGradient id="linear-gradient-10" x1="185.02" y1="74.31" x2="185.02" y2="65.97" xlink:href="#linear-gradient-7"/><linearGradient id="linear-gradient-11" x1="183.85" y1="70.14" x2="187.61" y2="70.14" xlink:href="#linear-gradient-8"/><radialGradient id="radial-gradient-12" cx="185.36" cy="70.29" r="4.49" xlink:href="#radial-gradient-10"/><radialGradient id="New_Gradient_Swatch_94-7" cx="185.02" cy="66.83" r="3.55" xlink:href="#New_Gradient_Swatch_94"/><radialGradient id="radial-gradient-13" cx="187.32" cy="67.65" r="5.27" xlink:href="#radial-gradient-11"/><radialGradient id="New_Gradient_Swatch_94-8" cx="187.36" cy="64.56" r="5.18" xlink:href="#New_Gradient_Swatch_94"/><radialGradient id="New_Gradient_Swatch_94-9" cx="184.03" cy="69.13" r="3.64" xlink:href="#New_Gradient_Swatch_94"/><linearGradient id="linear-gradient-12" x1="185.56" y1="74.52" x2="185.22" y2="65.4" xlink:href="#linear-gradient-9"/><linearGradient id="linear-gradient-13" x1="179.1" y1="62.98" x2="179.1" y2="55.28" xlink:href="#linear-gradient-7"/><radialGradient id="New_Gradient_Swatch_94-10" cx="176.99" cy="56.24" r="4.73" xlink:href="#New_Gradient_Swatch_94"/><linearGradient id="linear-gradient-14" x1="178" y1="59.13" x2="181.49" y2="59.13" xlink:href="#linear-gradient-8"/><radialGradient id="radial-gradient-14" cx="178.32" cy="59.32" r="4.42" xlink:href="#radial-gradient-10"/><radialGradient id="radial-gradient-15" cx="178.58" cy="56.34" r="4.39" xlink:href="#radial-gradient-11"/><linearGradient id="linear-gradient-15" x1="180.56" y1="64.42" x2="177.6" y2="55.56" gradientUnits="userSpaceOnUse"><stop offset="0" stop-color="#f2ae55"/><stop offset="1" stop-color="#ffef7a"/></linearGradient><radialGradient id="radial-gradient-16" cx="179.88" cy="56.94" r="3.23" xlink:href="#radial-gradient-11"/><linearGradient id="linear-gradient-16" x1="184.65" y1="57.83" x2="184.65" y2="51.26" xlink:href="#linear-gradient-7"/><linearGradient id="linear-gradient-17" x1="181.66" y1="54.5" x2="187.65" y2="54.5" xlink:href="#linear-gradient-8"/><radialGradient id="radial-gradient-17" cx="184.06" cy="55.56" r="2.34" xlink:href="#radial-gradient-10"/><radialGradient id="radial-gradient-18" cx="185.5" cy="53.26" r="2.08" xlink:href="#radial-gradient-11"/><radialGradient id="radial-gradient-19" cx="180.67" cy="56.69" r="3.6" xlink:href="#radial-gradient-11"/><radialGradient id="New_Gradient_Swatch_94-11" cx="186.44" cy="52.76" r="4.92" xlink:href="#New_Gradient_Swatch_94"/><radialGradient id="New_Gradient_Swatch_94-12" cx="186.41" cy="50.73" r="3.65" xlink:href="#New_Gradient_Swatch_94"/><radialGradient id="New_Gradient_Swatch_94-13" cx="185.71" cy="54.34" r="4.11" xlink:href="#New_Gradient_Swatch_94"/><linearGradient id="linear-gradient-18" x1="182.11" y1="57.33" x2="187.25" y2="51.04" gradientUnits="userSpaceOnUse"><stop offset="0" stop-color="#ffcb5a"/><stop offset="1" stop-color="#ffef7a"/></linearGradient><linearGradient id="linear-gradient-19" x1="184.07" y1="66.63" x2="184.07" y2="59.27" xlink:href="#linear-gradient-7"/><radialGradient id="New_Gradient_Swatch_94-14" cx="187.39" cy="64.55" r="4.47" xlink:href="#New_Gradient_Swatch_94"/><linearGradient id="linear-gradient-20" x1="180.65" y1="65.94" x2="186.53" y2="59.04" xlink:href="#linear-gradient-8"/><radialGradient id="radial-gradient-20" cx="183.19" cy="63.91" r="2.38" xlink:href="#radial-gradient-10"/><radialGradient id="radial-gradient-21" cx="183.95" cy="58.26" r="5.34" xlink:href="#radial-gradient-11"/><radialGradient id="New_Gradient_Swatch_94-15" cx="185.81" cy="58.99" r="3.71" xlink:href="#New_Gradient_Swatch_94"/><linearGradient id="linear-gradient-21" x1="181.97" y1="66.85" x2="186.71" y2="59.76" gradientUnits="userSpaceOnUse"><stop offset="0" stop-color="#f28f0f"/><stop offset="1" stop-color="#ffef7a"/></linearGradient><linearGradient id="linear-gradient-22" x1="180.6" y1="79.03" x2="180.6" y2="73.46" xlink:href="#linear-gradient-7"/><radialGradient id="New_Gradient_Swatch_94-16" cx="178.33" cy="73.16" r="3.09" xlink:href="#New_Gradient_Swatch_94"/><radialGradient id="New_Gradient_Swatch_94-17" cx="180.21" cy="73.19" r="3.1" xlink:href="#New_Gradient_Swatch_94"/><linearGradient id="linear-gradient-23" x1="176.33" y1="76.33" x2="184.86" y2="76.33" xlink:href="#linear-gradient-8"/><radialGradient id="radial-gradient-22" cx="180.98" cy="75.31" r="5.28" xlink:href="#radial-gradient-10"/><radialGradient id="New_Gradient_Swatch_94-18" cx="176.73" cy="71.94" r="4.55" xlink:href="#New_Gradient_Swatch_94"/><radialGradient id="radial-gradient-23" cx="177.78" cy="74.05" r="4.91" xlink:href="#radial-gradient-11"/><linearGradient id="linear-gradient-24" x1="184.7" y1="78.4" x2="176.11" y2="73.71" gradientUnits="userSpaceOnUse"><stop offset="0" stop-color="#d18a2c"/><stop offset="1" stop-color="#fff39c"/></linearGradient><linearGradient id="New_Gradient_Swatch_99" x1="208.49" y1="76.03" x2="208.49" y2="56.08" gradientUnits="userSpaceOnUse"><stop offset="0" stop-color="#7a0a00"/><stop offset="0.71" stop-color="#d90000"/><stop offset="0.82" stop-color="#ec200b"/><stop offset="0.93" stop-color="#fa3814"/><stop offset="1" stop-color="#ff4117"/></linearGradient><linearGradient id="New_Gradient_Swatch_106" x1="208.49" y1="75.61" x2="208.49" y2="56.51" gradientUnits="userSpaceOnUse"><stop offset="0" stop-color="#ff6000"/><stop offset="0.41" stop-color="#ffb812"/><stop offset="1" stop-color="#fff2b0"/></linearGradient><linearGradient id="New_Gradient_Swatch_103" x1="208.49" y1="66.12" x2="208.49" y2="56.51" gradientUnits="userSpaceOnUse"><stop offset="0" stop-color="#7a200b"/><stop offset="1" stop-color="#ffb829"/></linearGradient><linearGradient id="linear-gradient-25" x1="146.28" y1="84.81" x2="146.28" y2="55.8" gradientTransform="matrix(-1, 0, 0, 1, 376.4, 0)" xlink:href="#linear-gradient-3"/><radialGradient id="New_Gradient_Swatch_94-19" cx="139.33" cy="58.42" r="28.73" gradientTransform="matrix(-1, 0, 0, 1, 376.4, 0)" xlink:href="#New_Gradient_Swatch_94"/><linearGradient id="linear-gradient-26" x1="137.59" y1="71.42" x2="137.59" y2="63.92" gradientTransform="matrix(-1, 0, 0, 1, 376.4, 0)" xlink:href="#linear-gradient-7"/><linearGradient id="linear-gradient-27" x1="134.32" y1="67.67" x2="140.61" y2="67.67" gradientTransform="matrix(-1, 0, 0, 1, 376.4, 0)" xlink:href="#linear-gradient-8"/><radialGradient id="New_Gradient_Swatch_94-20" cx="133.6" cy="63.97" r="4.53" gradientTransform="matrix(-1, 0, 0, 1, 376.4, 0)" xlink:href="#New_Gradient_Swatch_94"/><radialGradient id="New_Gradient_Swatch_94-21" cx="136.58" cy="64.32" r="4.29" gradientTransform="matrix(-1, 0, 0, 1, 376.4, 0)" xlink:href="#New_Gradient_Swatch_94"/><radialGradient id="New_Gradient_Swatch_94-22" cx="138.05" cy="65.32" r="4.47" gradientTransform="matrix(-1, 0, 0, 1, 376.4, 0)" xlink:href="#New_Gradient_Swatch_94"/><radialGradient id="radial-gradient-24" cx="136.79" cy="65.24" r="10.56" gradientTransform="matrix(-1, 0, 0, 1, 376.4, 0)" xlink:href="#radial-gradient-10"/><radialGradient id="radial-gradient-25" cx="135.33" cy="67.67" r="3.91" gradientTransform="matrix(-1, 0, 0, 1, 376.4, 0)" xlink:href="#radial-gradient-11"/><linearGradient id="linear-gradient-28" x1="140.85" y1="71.76" x2="134.01" y2="64.35" gradientTransform="matrix(-1, 0, 0, 1, 376.4, 0)" xlink:href="#linear-gradient-9"/><linearGradient id="linear-gradient-29" x1="144.43" y1="74.31" x2="144.43" y2="65.97" gradientTransform="matrix(-1, 0, 0, 1, 376.4, 0)" xlink:href="#linear-gradient-7"/><linearGradient id="linear-gradient-30" x1="143.26" y1="70.14" x2="147.03" y2="70.14" gradientTransform="matrix(-1, 0, 0, 1, 376.4, 0)" xlink:href="#linear-gradient-8"/><radialGradient id="radial-gradient-26" cx="144.77" cy="70.29" r="4.49" gradientTransform="matrix(-1, 0, 0, 1, 376.4, 0)" xlink:href="#radial-gradient-10"/><radialGradient id="New_Gradient_Swatch_94-23" cx="144.44" cy="66.83" r="3.55" gradientTransform="matrix(-1, 0, 0, 1, 376.4, 0)" xlink:href="#New_Gradient_Swatch_94"/><radialGradient id="radial-gradient-27" cx="146.73" cy="67.65" r="5.27" gradientTransform="matrix(-1, 0, 0, 1, 376.4, 0)" xlink:href="#radial-gradient-11"/><radialGradient id="New_Gradient_Swatch_94-24" cx="146.77" cy="64.56" r="5.18" gradientTransform="matrix(-1, 0, 0, 1, 376.4, 0)" xlink:href="#New_Gradient_Swatch_94"/><radialGradient id="New_Gradient_Swatch_94-25" cx="143.44" cy="69.13" r="3.64" gradientTransform="matrix(-1, 0, 0, 1, 376.4, 0)" xlink:href="#New_Gradient_Swatch_94"/><linearGradient id="linear-gradient-31" x1="144.97" y1="74.52" x2="144.64" y2="65.4" gradientTransform="matrix(-1, 0, 0, 1, 376.4, 0)" xlink:href="#linear-gradient-9"/><linearGradient id="linear-gradient-32" x1="138.52" y1="62.98" x2="138.52" y2="55.28" gradientTransform="matrix(-1, 0, 0, 1, 376.4, 0)" xlink:href="#linear-gradient-7"/><radialGradient id="New_Gradient_Swatch_94-26" cx="136.4" cy="56.24" r="4.73" gradientTransform="matrix(-1, 0, 0, 1, 376.4, 0)" xlink:href="#New_Gradient_Swatch_94"/><linearGradient id="linear-gradient-33" x1="137.42" y1="59.13" x2="140.91" y2="59.13" gradientTransform="matrix(-1, 0, 0, 1, 376.4, 0)" xlink:href="#linear-gradient-8"/><radialGradient id="radial-gradient-28" cx="137.74" cy="59.32" r="4.42" gradientTransform="matrix(-1, 0, 0, 1, 376.4, 0)" xlink:href="#radial-gradient-10"/><radialGradient id="radial-gradient-29" cx="137.99" cy="56.34" r="4.39" gradientTransform="matrix(-1, 0, 0, 1, 376.4, 0)" xlink:href="#radial-gradient-11"/><linearGradient id="linear-gradient-34" x1="139.97" y1="64.42" x2="137.01" y2="55.56" gradientTransform="matrix(-1, 0, 0, 1, 376.4, 0)" xlink:href="#linear-gradient-15"/><radialGradient id="radial-gradient-30" cx="139.3" cy="56.94" r="3.23" gradientTransform="matrix(-1, 0, 0, 1, 376.4, 0)" xlink:href="#radial-gradient-11"/><linearGradient id="linear-gradient-35" x1="144.07" y1="57.83" x2="144.07" y2="51.26" gradientTransform="matrix(-1, 0, 0, 1, 376.4, 0)" xlink:href="#linear-gradient-7"/><linearGradient id="linear-gradient-36" x1="141.07" y1="54.5" x2="147.07" y2="54.5" gradientTransform="matrix(-1, 0, 0, 1, 376.4, 0)" xlink:href="#linear-gradient-8"/><radialGradient id="radial-gradient-31" cx="143.47" cy="55.56" r="2.34" gradientTransform="matrix(-1, 0, 0, 1, 376.4, 0)" xlink:href="#radial-gradient-10"/><radialGradient id="radial-gradient-32" cx="144.92" cy="53.26" r="2.08" gradientTransform="matrix(-1, 0, 0, 1, 376.4, 0)" xlink:href="#radial-gradient-11"/><radialGradient id="radial-gradient-33" cx="140.08" cy="56.69" r="3.6" gradientTransform="matrix(-1, 0, 0, 1, 376.4, 0)" xlink:href="#radial-gradient-11"/><radialGradient id="New_Gradient_Swatch_94-27" cx="145.86" cy="52.76" r="4.92" gradientTransform="matrix(-1, 0, 0, 1, 376.4, 0)" xlink:href="#New_Gradient_Swatch_94"/><radialGradient id="New_Gradient_Swatch_94-28" cx="145.82" cy="50.73" r="3.65" gradientTransform="matrix(-1, 0, 0, 1, 376.4, 0)" xlink:href="#New_Gradient_Swatch_94"/><radialGradient id="New_Gradient_Swatch_94-29" cx="145.12" cy="54.34" r="4.11" gradientTransform="matrix(-1, 0, 0, 1, 376.4, 0)" xlink:href="#New_Gradient_Swatch_94"/><linearGradient id="linear-gradient-37" x1="141.53" y1="57.33" x2="146.67" y2="51.04" gradientTransform="matrix(-1, 0, 0, 1, 376.4, 0)" xlink:href="#linear-gradient-18"/><linearGradient id="linear-gradient-38" x1="143.48" y1="66.63" x2="143.48" y2="59.27" gradientTransform="matrix(-1, 0, 0, 1, 376.4, 0)" xlink:href="#linear-gradient-7"/><radialGradient id="New_Gradient_Swatch_94-30" cx="146.81" cy="64.55" r="4.47" gradientTransform="matrix(-1, 0, 0, 1, 376.4, 0)" xlink:href="#New_Gradient_Swatch_94"/><linearGradient id="linear-gradient-39" x1="140.06" y1="65.94" x2="145.94" y2="59.04" gradientTransform="matrix(-1, 0, 0, 1, 376.4, 0)" xlink:href="#linear-gradient-8"/><radialGradient id="radial-gradient-34" cx="142.61" cy="63.91" r="2.38" gradientTransform="matrix(-1, 0, 0, 1, 376.4, 0)" xlink:href="#radial-gradient-10"/><radialGradient id="radial-gradient-35" cx="143.37" cy="58.26" r="5.34" gradientTransform="matrix(-1, 0, 0, 1, 376.4, 0)" xlink:href="#radial-gradient-11"/><radialGradient id="New_Gradient_Swatch_94-31" cx="145.23" cy="58.99" r="3.71" gradientTransform="matrix(-1, 0, 0, 1, 376.4, 0)" xlink:href="#New_Gradient_Swatch_94"/><linearGradient id="linear-gradient-40" x1="141.38" y1="66.85" x2="146.13" y2="59.76" gradientTransform="matrix(-1, 0, 0, 1, 376.4, 0)" xlink:href="#linear-gradient-21"/><linearGradient id="linear-gradient-41" x1="140.01" y1="79.03" x2="140.01" y2="73.46" gradientTransform="matrix(-1, 0, 0, 1, 376.4, 0)" xlink:href="#linear-gradient-7"/><radialGradient id="New_Gradient_Swatch_94-32" cx="137.74" cy="73.16" r="3.09" gradientTransform="matrix(-1, 0, 0, 1, 376.4, 0)" xlink:href="#New_Gradient_Swatch_94"/><radialGradient id="New_Gradient_Swatch_94-33" cx="139.63" cy="73.19" r="3.1" gradientTransform="matrix(-1, 0, 0, 1, 376.4, 0)" xlink:href="#New_Gradient_Swatch_94"/><linearGradient id="linear-gradient-42" x1="135.75" y1="76.33" x2="144.27" y2="76.33" gradientTransform="matrix(-1, 0, 0, 1, 376.4, 0)" xlink:href="#linear-gradient-8"/><radialGradient id="radial-gradient-36" cx="140.4" cy="75.31" r="5.28" gradientTransform="matrix(-1, 0, 0, 1, 376.4, 0)" xlink:href="#radial-gradient-10"/><radialGradient id="New_Gradient_Swatch_94-34" cx="136.14" cy="71.94" r="4.55" gradientTransform="matrix(-1, 0, 0, 1, 376.4, 0)" xlink:href="#New_Gradient_Swatch_94"/><radialGradient id="radial-gradient-37" cx="137.19" cy="74.05" r="4.91" gradientTransform="matrix(-1, 0, 0, 1, 376.4, 0)" xlink:href="#radial-gradient-11"/><linearGradient id="linear-gradient-43" x1="144.11" y1="78.4" x2="135.52" y2="73.71" gradientTransform="matrix(-1, 0, 0, 1, 376.4, 0)" xlink:href="#linear-gradient-24"/><radialGradient id="radial-gradient-38" cx="-14.51" cy="37.97" r="71.19" gradientTransform="matrix(-1, 0, 0, 1, 164.23, 0)" gradientUnits="userSpaceOnUse"><stop offset="0" stop-color="#ed3b00"/><stop offset="0.77" stop-color="#d90000"/><stop offset="0.95" stop-color="#ff2632"/><stop offset="0.96" stop-color="#fb2530"/><stop offset="0.97" stop-color="#ee212b"/><stop offset="0.98" stop-color="#d91b23"/><stop offset="0.99" stop-color="#bb1218"/><stop offset="0.99" stop-color="#96070a"/><stop offset="1" stop-color="#7d0000"/></radialGradient><radialGradient id="radial-gradient-39" cx="238.25" cy="37.97" r="71.19" gradientTransform="matrix(1, 0, 0, 1, 0, 0)" xlink:href="#radial-gradient-38"/><radialGradient id="radial-gradient-40" cx="234.56" cy="42.18" r="65.31" gradientUnits="userSpaceOnUse"><stop offset="0" stop-color="#ffea73"/><stop offset="0.35" stop-color="#ffea71"/><stop offset="0.47" stop-color="#ffe96a"/><stop offset="0.56" stop-color="#ffe75f"/><stop offset="0.63" stop-color="#ffe54e"/><stop offset="0.69" stop-color="#ffe138"/><stop offset="0.75" stop-color="#ffdd1d"/><stop offset="0.77" stop-color="#ffdb0d"/><stop offset="0.94" stop-color="#fff6ab"/><stop offset="0.95" stop-color="#fef3a7"/><stop offset="0.96" stop-color="#f9ea9a"/><stop offset="0.97" stop-color="#f3da85"/><stop offset="0.98" stop-color="#e9c567"/><stop offset="0.99" stop-color="#dca941"/><stop offset="1" stop-color="#cd8813"/><stop offset="1" stop-color="#c77a00"/></radialGradient><radialGradient id="radial-gradient-41" cx="182.63" cy="77.63" r="19.64" gradientUnits="userSpaceOnUse"><stop offset="0" stop-color="#ffd58c"/><stop offset="0" stop-color="#ff8f8f"/><stop offset="1"/></radialGradient><radialGradient id="radial-gradient-42" cx="-18.2" cy="42.18" r="65.31" gradientTransform="matrix(-1, 0, 0, 1, 164.23, 0)" xlink:href="#radial-gradient-40"/><radialGradient id="radial-gradient-43" cx="-70.13" cy="77.63" r="19.64" gradientTransform="matrix(-1, 0, 0, 1, 164.23, 0)" xlink:href="#radial-gradient-41"/><radialGradient id="radial-gradient-44" cx="15.19" cy="45.17" r="3.25" gradientUnits="userSpaceOnUse"><stop offset="0" stop-color="#ffea26"/><stop offset="0.02" stop-color="#fee029"/><stop offset="0.22" stop-color="#f57a46"/><stop offset="0.3" stop-color="#f25252"/><stop offset="0.32" stop-color="#e64e4e"/><stop offset="0.43" stop-color="#aa3939"/><stop offset="0.54" stop-color="#762828"/><stop offset="0.64" stop-color="#4c1a1a"/><stop offset="0.74" stop-color="#2b0e0e"/><stop offset="0.84" stop-color="#130606"/><stop offset="0.92" stop-color="#050202"/><stop offset="1"/></radialGradient><radialGradient id="radial-gradient-45" cx="232.48" cy="80.78" r="3.25" xlink:href="#radial-gradient-44"/><radialGradient id="radial-gradient-46" cx="208.56" cy="154.74" r="77.75" gradientUnits="userSpaceOnUse"><stop offset="0.93" stop-color="#a85400"/><stop offset="0.94" stop-color="#b66f1d"/><stop offset="0.95" stop-color="#cc994b"/><stop offset="0.96" stop-color="#debb71"/><stop offset="0.97" stop-color="#edd68f"/><stop offset="0.98" stop-color="#f7eaa4"/><stop offset="0.99" stop-color="#fdf5b1"/><stop offset="1" stop-color="#fff9b5"/></radialGradient><radialGradient id="radial-gradient-47" cx="208.5" cy="139.32" r="62.27" gradientUnits="userSpaceOnUse"><stop offset="0.9" stop-color="#c77a00"/><stop offset="0.91" stop-color="#d79600"/><stop offset="0.94" stop-color="#e9b300"/><stop offset="0.96" stop-color="#f5c800"/><stop offset="0.98" stop-color="#fcd500"/><stop offset="1" stop-color="#ffd900"/></radialGradient><radialGradient id="radial-gradient-48" cx="208.35" cy="142.46" r="62.87" gradientUnits="userSpaceOnUse"><stop offset="0.91"/><stop offset="0.93" stop-color="#020202"/><stop offset="0.95" stop-color="#0b0a07"/><stop offset="0.96" stop-color="#191811"/><stop offset="0.96" stop-color="#2d2b1e"/><stop offset="0.97" stop-color="#474430"/><stop offset="0.98" stop-color="#676345"/><stop offset="0.99" stop-color="#8d885e"/><stop offset="0.99" stop-color="#b9b27c"/><stop offset="1" stop-color="#eae19d"/><stop offset="1" stop-color="#fff6ab"/></radialGradient><radialGradient id="radial-gradient-49" cx="197.37" cy="80.54" r="2.31" gradientUnits="userSpaceOnUse"><stop offset="0" stop-color="#ffd400"/><stop offset="0.23" stop-color="#f39200"/><stop offset="0.26" stop-color="#e68a00"/><stop offset="0.38" stop-color="#a60"/><stop offset="0.49" stop-color="#764700"/><stop offset="0.61" stop-color="#4c2d00"/><stop offset="0.71" stop-color="#2b1a00"/><stop offset="0.82" stop-color="#130b00"/><stop offset="0.92" stop-color="#050300"/><stop offset="1"/></radialGradient><radialGradient id="radial-gradient-50" cx="34.74" cy="38.29" r="1.65" gradientUnits="userSpaceOnUse"><stop offset="0" stop-color="#ffd400"/><stop offset="0.02" stop-color="#fdcb00"/><stop offset="0.09" stop-color="#f8ac00"/><stop offset="0.15" stop-color="#f49900"/><stop offset="0.19" stop-color="#f39200"/><stop offset="0.2" stop-color="#ea8d00"/><stop offset="0.29" stop-color="#b46c00"/><stop offset="0.39" stop-color="#844f00"/><stop offset="0.48" stop-color="#5b3700"/><stop offset="0.58" stop-color="#3a2300"/><stop offset="0.67" stop-color="#211400"/><stop offset="0.77" stop-color="#0e0900"/><stop offset="0.88" stop-color="#040200"/><stop offset="1"/></radialGradient><radialGradient id="radial-gradient-51" cx="216.44" cy="80.09" r="1.65" xlink:href="#radial-gradient-50"/></defs><g class="cls-1"><g id="Layer_1" data-name="Layer 1"><path class="cls-2" d="M180.1,86.85c1.12-.13,8.34-1.19,8.34-2.89a.87.87,0,0,0-.34-.63,21.38,21.38,0,0,1,7.25,7.09,1.71,1.71,0,0,1,.29,1.44,1.89,1.89,0,0,1-.9,1,33.23,33.23,0,0,1-9.25,3.38,16.79,16.79,0,0,1-.38-5.49,10.24,10.24,0,0,1-5-3.91Z" transform="translate(-174.91 -42.66)"/><path class="cls-3" d="M188.44,84c0,1.09-2.94,1.91-5.36,2.4a23.23,23.23,0,0,0,4.17,3.92,22,22,0,0,0,6.2,3.29c.44-.22.87-.45,1.29-.7a1.89,1.89,0,0,0,.9-1,1.71,1.71,0,0,0-.29-1.44,21.38,21.38,0,0,0-7.25-7.09.87.87,0,0,1,.34.63Z" transform="translate(-174.91 -42.66)"/><path class="cls-4" d="M194.33,90.42c-.44,1.7-6.68,3.38-9.17,4q.06.47.15.93c2.24-.53,9.16-2.37,9.67-4.18a1.63,1.63,0,0,0-.29-1.37l-.66-.64a1.57,1.57,0,0,1,.3,1.29ZM181.48,88.5c2-.32,8.17-1.5,8.27-3.11a1,1,0,0,0-.33-.77l-.66-.65a.92.92,0,0,1,.33.7c-.05,1.67-6.83,2.8-8.36,3,.24.29.49.56.75.82Z" transform="translate(-174.91 -42.66)"/><path class="cls-5" d="M191.53,90.62c.94.64,4.4-.5,4.11,1.24a1.71,1.71,0,0,0-.29-1.44,30.6,30.6,0,0,0-8.59-8.64.86.86,0,0,1,.33.62c0,.71-1.17,1.27-2.63,1.69a30.5,30.5,0,0,0,7.07,6.53Z" transform="translate(-174.91 -42.66)"/><path class="cls-6" d="M236.89,86.85c-1.13-.13-8.34-1.19-8.34-2.89a.86.86,0,0,1,.33-.63,21.26,21.26,0,0,0-7.24,7.09,1.71,1.71,0,0,0-.29,1.44,1.85,1.85,0,0,0,.9,1,33.23,33.23,0,0,0,9.25,3.38,17.36,17.36,0,0,0,.38-5.49,10.29,10.29,0,0,0,5-3.91Z" transform="translate(-174.91 -42.66)"/><path class="cls-7" d="M228.55,84c0,1.09,2.94,1.91,5.36,2.4a23.57,23.57,0,0,1-4.17,3.92,22.17,22.17,0,0,1-6.2,3.29c-.44-.22-.88-.45-1.29-.7a1.85,1.85,0,0,1-.9-1,1.71,1.71,0,0,1,.29-1.44,21.26,21.26,0,0,1,7.24-7.09.86.86,0,0,0-.33.63Z" transform="translate(-174.91 -42.66)"/><path class="cls-8" d="M222.66,90.42c.44,1.7,6.67,3.38,9.16,4,0,.31-.08.62-.14.93-2.24-.53-9.16-2.37-9.67-4.18a1.6,1.6,0,0,1,.29-1.37l.65-.64a1.53,1.53,0,0,0-.29,1.29Zm12.85-1.92c-2-.32-8.17-1.5-8.27-3.11a1,1,0,0,1,.33-.77l.65-.65a1,1,0,0,0-.33.7c.06,1.67,6.84,2.8,8.37,3-.24.29-.49.56-.75.82Z" transform="translate(-174.91 -42.66)"/><path class="cls-5" d="M225.46,90.62c-1,.64-4.4-.5-4.11,1.24a1.71,1.71,0,0,1,.29-1.44,30.47,30.47,0,0,1,8.59-8.64.86.86,0,0,0-.33.62c0,.71,1.17,1.27,2.63,1.69a30.71,30.71,0,0,1-7.07,6.53Z" transform="translate(-174.91 -42.66)"/><path class="cls-9" d="M208.49,47.6A21.45,21.45,0,1,1,187,69.05,21.45,21.45,0,0,1,208.49,47.6Z" transform="translate(-174.91 -42.66)"/><path class="cls-10" d="M208.49,82.61A18.39,18.39,0,0,0,225.37,57a20.84,20.84,0,1,1-33.75,0,18.39,18.39,0,0,0,16.87,25.66Z" transform="translate(-174.91 -42.66)"/><path class="cls-11" d="M208.49,48.49a20.56,20.56,0,1,1-20.55,20.56,20.56,20.56,0,0,1,20.55-20.56ZM232,69.05a23.47,23.47,0,1,0-23.47,23.46A23.47,23.47,0,0,0,232,69.05Z" transform="translate(-174.91 -42.66)"/><path class="cls-12" d="M208.49,92.51A23.47,23.47,0,1,0,185,69.05a23.46,23.46,0,0,0,23.46,23.46Zm26.39-23.46a26.39,26.39,0,1,1-26.39-26.39,26.39,26.39,0,0,1,26.39,26.39Z" transform="translate(-174.91 -42.66)"/><path class="cls-13" d="M208.49,92.51A23.39,23.39,0,0,1,192.31,86a22.68,22.68,0,0,0,16.18,6.83,22.28,22.28,0,0,0,7.42-1.26,1,1,0,0,0,1.33.41,1,1,0,0,0,.69-1.22A23.33,23.33,0,0,0,224.68,86a23.39,23.39,0,0,1-16.19,6.47Z" transform="translate(-174.91 -42.66)"/><path class="cls-14" d="M208.49,89.6a20.55,20.55,0,0,1-20.55-20.55,10.69,10.69,0,0,1-1.46.1,10.43,10.43,0,0,1-1.45-.1,23.47,23.47,0,0,0,46.93,0,10.64,10.64,0,0,1-2.91,0A20.56,20.56,0,0,1,208.49,89.6Z" transform="translate(-174.91 -42.66)"/><path class="cls-15" d="M185,69.05a23.47,23.47,0,1,1,46.93,0,9.74,9.74,0,0,1,2.92,0,26.39,26.39,0,1,0-52.77,0,9.74,9.74,0,0,1,2.92,0Z" transform="translate(-174.91 -42.66)"/><path class="cls-13" d="M208.49,45.58a23.39,23.39,0,0,1,16.19,6.47,22.69,22.69,0,0,0-16.19-6.83,22.4,22.4,0,0,0-8.4,1.63,1.75,1.75,0,0,0-2.28-.52,1.72,1.72,0,0,0-1,2.16c-.44.26-.86.54-1.28.83a.91.91,0,0,0-1.41,1.07c-.63.52-1.24,1.08-1.82,1.66a23.39,23.39,0,0,1,16.18-6.47Z" transform="translate(-174.91 -42.66)"/><path class="cls-16" d="M208.49,89.6a20.55,20.55,0,0,1-20.55-20.55c0,11.84,9.2,21.45,20.55,21.45s20.56-9.61,20.56-21.45A20.56,20.56,0,0,1,208.49,89.6Z" transform="translate(-174.91 -42.66)"/><path class="cls-17" d="M208.49,49.59c9.38,0,17.3,5.89,19.81,14a20.56,20.56,0,0,0-39.62,0c2.52-8.07,10.44-14,19.81-14Z" transform="translate(-174.91 -42.66)"/><path class="cls-18" d="M208.49,74.31C217,74.31,224,69,224,62.44S217,50.57,208.49,50.57,193,55.88,193,62.44,200,74.31,208.49,74.31Z" transform="translate(-174.91 -42.66)"/><path class="cls-19" d="M208.49,60.09c5.41,0,9.79-2,9.79-4.54S213.9,51,208.49,51s-9.79,2-9.79,4.54,4.39,4.54,9.79,4.54Z" transform="translate(-174.91 -42.66)"/><path class="cls-20" d="M191.77,84.68a22.74,22.74,0,0,1-8.68-9.44c-2.89-5.9-3.46-14,.33-19.44a20.86,20.86,0,0,0,.81,18.87,21.49,21.49,0,0,0,8.36,8.66h0a.79.79,0,0,1-.78,1.38l0,0Z" transform="translate(-174.91 -42.66)"/><path class="cls-21" d="M189.08,82.52a19.83,19.83,0,0,1-4.6-5.19A23.35,23.35,0,0,1,181,67.23a19,19,0,0,1,1-8.6,21.21,21.21,0,0,0-.7,8.52,22,22,0,0,0,3.6,9.84,31,31,0,0,0,4.61,4.94c.38.38.36.56.27.69s-.38.2-.74-.1Z" transform="translate(-174.91 -42.66)"/><path class="cls-22" d="M178.63,71.4a2.79,2.79,0,0,1-1.53-.69,6.09,6.09,0,0,1-1.67-2.31,2.77,2.77,0,0,0,.93.39,4.44,4.44,0,0,1-1.05-.77.31.31,0,0,0,0-.08c-.27-1.14-.17-3.14-.38-4a23.19,23.19,0,0,0,2.65,1.13l.42.17c0,.17,0,.36.06.52s.14.12.21,0a1,1,0,0,0,.1-.34c1.54.71,3.05,1.75,3.09,3.27,0,.82-.49,1.44-.25,2.32-.64,0-1.76.53-2.56.42Z" transform="translate(-174.91 -42.66)"/><path class="cls-23" d="M178.55,69a23.31,23.31,0,0,1-3.64-5.06c.21.88.11,2.88.38,4a.31.31,0,0,1,0,.08,4.44,4.44,0,0,0,1.05.77,2.77,2.77,0,0,1-.93-.39,6.09,6.09,0,0,0,1.67,2.31,2.79,2.79,0,0,0,1.53.69c.8.11,1.92-.44,2.56-.42a17.62,17.62,0,0,1-2.64-2Z" transform="translate(-174.91 -42.66)"/><path class="cls-24" d="M175.24,65.85c0-.55.1-1.07.35-1.19a3.45,3.45,0,0,1,1.79.31,18.71,18.71,0,0,1-2.47-1c.21.88.11,2.88.38,4a.31.31,0,0,1,0,.08l.14.13a9.3,9.3,0,0,1-.21-2.3Zm.19,2.55a5.46,5.46,0,0,0,.27.6c-.06-.18-.12-.35-.17-.54l-.1-.06Z" transform="translate(-174.91 -42.66)"/><path class="cls-25" d="M177.62,68a5.46,5.46,0,0,0,.25-2.82l-.31-.13-.53-.21a4.23,4.23,0,0,1,.24,2.73c.11.15.23.29.35.43Z" transform="translate(-174.91 -42.66)"/><path class="cls-26" d="M178.79,65.6a6.68,6.68,0,0,1-1,2.64,13,13,0,0,0,1.2,1.15,5.12,5.12,0,0,0,.49-3.37c-.24-.15-.48-.29-.73-.42Z" transform="translate(-174.91 -42.66)"/><path class="cls-27" d="M180.08,67.3c1,2.38-1.76,4.56-4.2,2a7.11,7.11,0,0,0,1.22,1.41,2.79,2.79,0,0,0,1.53.69c.8.11,1.92-.44,2.56-.42-.24-.88.27-1.5.25-2.32,0-1.4-1.33-2.39-2.73-3.1a3.48,3.48,0,0,1,1.37,1.74Z" transform="translate(-174.91 -42.66)"/><path class="cls-28" d="M176,69.46a5,5,0,0,0,3-.13L178.6,69a5.07,5.07,0,0,1-2.92-.06,4.53,4.53,0,0,0,.31.5Zm3.14,0a5.25,5.25,0,0,1-2.38.47.53.53,0,0,0,.25.17,3.37,3.37,0,0,0,2.48-.34l-.35-.3Z" transform="translate(-174.91 -42.66)"/><path class="cls-29" d="M174.91,63.92a31.27,31.27,0,0,0,2.35,3.49,4.33,4.33,0,0,0-.14-2.36,4,4,0,0,1,.26,2.51A15.75,15.75,0,0,0,179,69.29a5.28,5.28,0,0,0,.51-3.07,4.73,4.73,0,0,1-.37,3.19,28.63,28.63,0,0,0,2.37,1.64.7.7,0,0,1,.19.51,11.94,11.94,0,0,0-1.91-1.41.38.38,0,0,0-.41,0,3.72,3.72,0,0,1-2.46.31,4.28,4.28,0,0,0,2.57-.5l-.52-.41c-.23-.19-.44-.38-.65-.57a.24.24,0,0,0-.23-.07,3.68,3.68,0,0,1-2.48-.33,4.2,4.2,0,0,0,2.48.17,11.81,11.81,0,0,1-1.26-1.52.51.51,0,0,0-.27-.21,3.38,3.38,0,0,1-1.32-.82,4.81,4.81,0,0,0,1.37.7c-.62-.91-1.14-1.89-1.74-2.94Z" transform="translate(-174.91 -42.66)"/><path class="cls-30" d="M187.06,72.77a4.29,4.29,0,0,0,.54-2,1.15,1.15,0,0,1-.49.51,8.43,8.43,0,0,0,.5-1.22,11.88,11.88,0,0,0-1-4.14,16.3,16.3,0,0,0-2.52,2.25,1.21,1.21,0,0,0-.36,1.1c-.17-.08-.27-.18-.28-.29a6.09,6.09,0,0,0-1,2,2.5,2.5,0,0,0,.31,1.59c.28.55.72,1.11,1.08,1.67a11.51,11.51,0,0,0,1.86-.52,3.22,3.22,0,0,0,1.35-1Z" transform="translate(-174.91 -42.66)"/><path class="cls-31" d="M186.6,66a11.88,11.88,0,0,1,1,4.14,8.43,8.43,0,0,1-.5,1.22,1.15,1.15,0,0,0,.49-.51,4.29,4.29,0,0,1-.54,2,3.22,3.22,0,0,1-1.35,1,11.51,11.51,0,0,1-1.86.52c.49-1.14,1.12-2,1.52-3.17A40.68,40.68,0,0,0,186.6,66Z" transform="translate(-174.91 -42.66)"/><path class="cls-32" d="M184.77,73a4.5,4.5,0,0,0,2.83-2.13,4.29,4.29,0,0,1-.54,1.87,3.22,3.22,0,0,1-1.35,1,11.51,11.51,0,0,1-1.86.52c-.36-.56-.8-1.12-1.08-1.67a2.5,2.5,0,0,1-.31-1.59,5.74,5.74,0,0,1,.57-1.39c-.39,1.25-.27,3.84,1.74,3.37Z" transform="translate(-174.91 -42.66)"/><path class="cls-33" d="M185.12,67.17a4.78,4.78,0,0,0,.34,1.26,3.6,3.6,0,0,1-.15-1.44l.33-.28a2,2,0,0,0,0,.66,2.71,2.71,0,0,0,.43,1.22c-.1.41-.2.82-.31,1.24a3.91,3.91,0,0,1-.89-2.41l.27-.25Z" transform="translate(-174.91 -42.66)"/><path class="cls-34" d="M185.39,71.1a3.72,3.72,0,0,0,2-2.49,8,8,0,0,1,.16,1.18,4.2,4.2,0,0,1-2.71,2.41c.21-.39.33-.71.51-1.1Zm1.2-1.12a4.12,4.12,0,0,1-1.18,1l.15-.46a4.77,4.77,0,0,0,.89-.66,4.26,4.26,0,0,0,.83-1.18,3.84,3.84,0,0,1-.69,1.32Z" transform="translate(-174.91 -42.66)"/><path class="cls-35" d="M187.6,69.85c-.19-1-.63-3.06-1.22-3.28-.43-.17-1.52.85-2.2,1.54A15.81,15.81,0,0,1,186.6,66a12,12,0,0,1,1,3.88Z" transform="translate(-174.91 -42.66)"/><path class="cls-36" d="M185,72l-.23.43a3.74,3.74,0,0,1-1.06-2.76,6.18,6.18,0,0,0,.76,1.46A7.46,7.46,0,0,1,185,72Z" transform="translate(-174.91 -42.66)"/><path class="cls-37" d="M186.6,66c-.24.88-.41,1.69-.58,2.49a3.58,3.58,0,0,1-.41-1.58,3.46,3.46,0,0,0,.36,1.78,17.29,17.29,0,0,1-.53,2,4.65,4.65,0,0,1-.9-2.76,4.16,4.16,0,0,0,.83,3,15.22,15.22,0,0,1-.79,1.82l0,0a5,5,0,0,1-1.23-3,4.77,4.77,0,0,0,1.15,3.15,6.3,6.3,0,0,0-.62,1.41,3.14,3.14,0,0,0,.24-.39c.26-.48.29-.45.55-.53a4.69,4.69,0,0,0,2.75-1.83,5.18,5.18,0,0,1-3,1.73c.09-.18.18-.36.28-.54.24-.42.31-.52.58-.65A3.87,3.87,0,0,0,187.46,70a4.08,4.08,0,0,1-2.4,2,12.85,12.85,0,0,0,.55-1.46c.13-.46.13-.42.34-.59a2.83,2.83,0,0,0,1.26-2,3,3,0,0,1-1.42,1.91c.29-1.15.5-2.42.81-4Z" transform="translate(-174.91 -42.66)"/><path class="cls-38" d="M180.14,63c.3-1,1.52-1.45,1.33-2.94a3.73,3.73,0,0,0-1.28-2.13c-.68-.68-2.15-1.56-2.16-2.63-.29.84-.71,1.18-.93,1.87a7.63,7.63,0,0,0-.26,1.11,1.41,1.41,0,0,0,.15.9c.07.12.14.23.23.36a3.2,3.2,0,0,1-.27-.25s-.09,0-.13,0l-.09-.08a4.14,4.14,0,0,0,.34,2.23,3.66,3.66,0,0,0,3.07,1.6Z" transform="translate(-174.91 -42.66)"/><path class="cls-39" d="M177.19,56.91a5.73,5.73,0,0,0,.56,1.5,9.1,9.1,0,0,1-.27-2,4.92,4.92,0,0,0,.55-1.08,17,17,0,0,0,.37,4.55A2.67,2.67,0,0,1,176.89,58c0-.17.07-.33.11-.48a2.07,2.07,0,0,0,.22.35,5.71,5.71,0,0,1-.14-.64l0-.05.09-.24Z" transform="translate(-174.91 -42.66)"/><path class="cls-40" d="M178.52,60.17a16.07,16.07,0,0,1-.49-4.89c0,1.07,1.48,1.95,2.16,2.63A3.73,3.73,0,0,1,181.47,60c.19,1.49-1,2-1.33,2.94a22,22,0,0,1-1.62-2.81Z" transform="translate(-174.91 -42.66)"/><path class="cls-41" d="M179.46,61.94c1.6-.59,1.76-2.29,1.1-3.64a3.21,3.21,0,0,1,.91,1.74c.19,1.49-1,2-1.33,2.94a3.66,3.66,0,0,1-3.07-1.6,3,3,0,0,1-.35-1.39,3,3,0,0,0,.67,1.32,1.88,1.88,0,0,0,2.07.63Z" transform="translate(-174.91 -42.66)"/><path class="cls-42" d="M179.67,59.06a3,3,0,0,1-.74,2c0-.09-.09-.18-.12-.26a2.88,2.88,0,0,0,.63-1.78,3.2,3.2,0,0,1-.79,1.44,6.48,6.48,0,0,1-.35-1.1,3.13,3.13,0,0,0,.56-2.58,3,3,0,0,1,.81,2.32Z" transform="translate(-174.91 -42.66)"/><path class="cls-43" d="M178,55.28a14.87,14.87,0,0,0,.27,4.44,2.7,2.7,0,0,1-1.37-1.62,2.54,2.54,0,0,0,1.2,1.67c.31.21.18.07.32.43a6.39,6.39,0,0,0,.51,1,3.56,3.56,0,0,1-2.17-1.66,3.64,3.64,0,0,0,2,1.73c.21.09.3.08.42.27s.18.29.28.43a5.51,5.51,0,0,1-2-1,5.29,5.29,0,0,0,2.14,1.2c.2.29,1.12,1.68,1.27,2,.1-.83-.12-.54-1-2,.61-1.22,1.45-2,1-3.43.31,1.45-.43,2-1.09,3.28a8.89,8.89,0,0,1-.61-.86c-.08-.13-.12-.19,0-.33a3.24,3.24,0,0,0,.56-2.12,3.08,3.08,0,0,1-.72,2.11,6.53,6.53,0,0,1-.56-1.55,3.29,3.29,0,0,0,.51-2.47,3.34,3.34,0,0,1-.55,2.3,17.92,17.92,0,0,1-.31-3.9Z" transform="translate(-174.91 -42.66)"/><path class="cls-44" d="M179.79,60.38a3.78,3.78,0,0,0,0-2.85c.15.14.3.26.42.38l.3.31a2.54,2.54,0,0,1-.7,2.16Z" transform="translate(-174.91 -42.66)"/><path class="cls-45" d="M182.45,57.74c0-.46-.71-1.34-.77-1.8a3.86,3.86,0,0,1,1.23-3,1.37,1.37,0,0,0,.05.85,2.69,2.69,0,0,1,.44-1.3,5.38,5.38,0,0,1,2.41-1,17.33,17.33,0,0,0,1.84-.19,2.1,2.1,0,0,0-.75,1,4,4,0,0,1-.62.61,1.28,1.28,0,0,0,.48-.09c-.08.42-.13.93-.21,1.6a10.65,10.65,0,0,1-.24,1.6,2.43,2.43,0,0,1-2.06,1.83,10.91,10.91,0,0,0-1.8-.09Z" transform="translate(-174.91 -42.66)"/><path class="cls-46" d="M182.91,52.89a3.86,3.86,0,0,0-1.23,3c.06.46.73,1.34.77,1.8,1-1.06.76-2.58,2-4.19a6.42,6.42,0,0,1,3.22-2.29,17.33,17.33,0,0,1-1.84.19,5.38,5.38,0,0,0-2.41,1,2.69,2.69,0,0,0-.44,1.3,1.37,1.37,0,0,1-.05-.85Z" transform="translate(-174.91 -42.66)"/><path class="cls-47" d="M183,56.41a2.94,2.94,0,0,1-.38-3.13,3.58,3.58,0,0,0-.89,2.66c.06.46.73,1.34.77,1.8a10.91,10.91,0,0,1,1.8.09A2.43,2.43,0,0,0,186.31,56a5,5,0,0,0,.15-.77c-.45,1.53-2.2,2.47-3.51,1.18Z" transform="translate(-174.91 -42.66)"/><path class="cls-48" d="M184.42,52.45a3.47,3.47,0,0,1,.36-.75A7,7,0,0,0,184,52a3.78,3.78,0,0,0-.55,3.23,6.31,6.31,0,0,1,4.16-4,17.33,17.33,0,0,1-1.84.19h-.06a3.13,3.13,0,0,0-1.28,1.18s-.08,0-.08,0a.5.5,0,0,1,0-.16Z" transform="translate(-174.91 -42.66)"/><path class="cls-49" d="M182.24,55a4.37,4.37,0,0,0,.45,1.19,2.79,2.79,0,0,1,.28.66,2.41,2.41,0,0,1-.35.67c.14-.21.15-.37,0-.76a2.86,2.86,0,0,1-.36-1.76Z" transform="translate(-174.91 -42.66)"/><path class="cls-50" d="M185.24,55.28a3.22,3.22,0,0,0,1.32-1c0-.12,0-.24,0-.35a2.65,2.65,0,0,1-1,.71,3.61,3.61,0,0,1-2,.29l-.17.48a4,4,0,0,0,1.8-.15Z" transform="translate(-174.91 -42.66)"/><path class="cls-51" d="M184.51,52.59a5.53,5.53,0,0,1,1.38-.94c.21-.09.73-.25.94-.07a.28.28,0,0,1,.08.27,2.47,2.47,0,0,1-.55,1,3.07,3.07,0,0,0,.54-.54,2.1,2.1,0,0,1,.75-1,17.33,17.33,0,0,1-1.84.19h-.06a3,3,0,0,0-1.24,1.13Z" transform="translate(-174.91 -42.66)"/><path class="cls-52" d="M183.38,55.64l-.17.59a3.77,3.77,0,0,0,1.76-.17c.08-.06.06-.12.2-.26a5.32,5.32,0,0,0,.45-.38,4.07,4.07,0,0,1-2.24.22Z" transform="translate(-174.91 -42.66)"/><path class="cls-53" d="M187.65,51.26a6.35,6.35,0,0,0-3,2.12,2.91,2.91,0,0,0,2.16-1,2.84,2.84,0,0,1-2.25,1,7.23,7.23,0,0,0-.63,1,4.23,4.23,0,0,0-.23.48,4,4,0,0,0,2.88-.89,3.22,3.22,0,0,1-1.44.9,9.33,9.33,0,0,1-1.48.1c-.16.4-.28.84-.42,1.32a.19.19,0,0,1,0,.08c1.3.08,2.2.11,3.1-.93a2.41,2.41,0,0,1-1.16,1,9,9,0,0,1-2,.09,3.27,3.27,0,0,1-.71,1.2,3.73,3.73,0,0,0,.49-.91c-.18-.55-.5-.94-.64-1.4a2.64,2.64,0,0,1,.14-1.81c-.37,1.43,0,1.89.54,3.1.05-.13.09-.27.14-.42s.13-.45.19-.68a1.1,1.1,0,0,0,.07-.54,6.94,6.94,0,0,1-.08-1.41,4.89,4.89,0,0,1,.63-1.46,4,4,0,0,0-.45,2.84,4.32,4.32,0,0,1,.28-.67,6.51,6.51,0,0,1,3.89-3.12Z" transform="translate(-174.91 -42.66)"/><path class="cls-54" d="M181.52,66.63a1.84,1.84,0,0,0,0-.66c-.14-.92-.65-2.49.13-3.39a6.82,6.82,0,0,1,2.62-1.76,6.25,6.25,0,0,0,2.18-1.55c0,.68.51,1.45.48,2.35a6.82,6.82,0,0,1-1.28,3.67c-.93.85-2.56.69-3.18.81a3.71,3.71,0,0,0-.94.53Z" transform="translate(-174.91 -42.66)"/><path class="cls-55" d="M186.34,64.15a3.15,3.15,0,0,1-2,.18,1.77,1.77,0,0,0,1.41-.67,3.06,3.06,0,0,1-1.76,0,5.94,5.94,0,0,0-1.21.74,4.53,4.53,0,0,0,3.07.55,4.39,4.39,0,0,0,.44-.84Z" transform="translate(-174.91 -42.66)"/><path class="cls-56" d="M182.84,64.34c.53-.4,1.17-.65,1.73-1,1.53-1,1.74-2.84,1.87-4a6.25,6.25,0,0,1-2.18,1.55,6.82,6.82,0,0,0-2.62,1.76c-.78.9-.27,2.47-.13,3.39a1.84,1.84,0,0,1,0,.66,3.82,3.82,0,0,1,1.32-2.29Z" transform="translate(-174.91 -42.66)"/><path class="cls-57" d="M183.36,65.64a2.26,2.26,0,0,1-1.27-2.73,4.57,4.57,0,0,1,1.42-1.73,5.42,5.42,0,0,0-1.87,1.4c-.78.9-.27,2.47-.13,3.39a1.84,1.84,0,0,1,0,.66,3.71,3.71,0,0,1,.94-.53,8.17,8.17,0,0,0,2.7-.48,2.42,2.42,0,0,1-1.8,0Z" transform="translate(-174.91 -42.66)"/><path class="cls-58" d="M185.56,60.08a4.23,4.23,0,0,0-1.4,3,3.06,3.06,0,0,0,.1.41l.17-.1.14-.09a3.25,3.25,0,0,0,.5-.4,3.84,3.84,0,0,1,.29-1.7,3.62,3.62,0,0,1,.07,1.29,6.45,6.45,0,0,0,1-3.24,3.85,3.85,0,0,1-.88.81Z" transform="translate(-174.91 -42.66)"/><path class="cls-59" d="M184.7,60.6a3.34,3.34,0,0,1,1.27-.34c.6,0,.79.93.81,1.4a6.9,6.9,0,0,1-.14,1.57,8.52,8.52,0,0,0,.28-1.61c0-.9-.48-1.67-.48-2.35a5.51,5.51,0,0,1-1.74,1.33Z" transform="translate(-174.91 -42.66)"/><path class="cls-60" d="M186.44,59.27c-.14,1.94-.64,3.25-1.8,4.14a2.66,2.66,0,0,0,2.11-1l-.24.31a2.76,2.76,0,0,1-1.94.78,1.53,1.53,0,0,0-.39.19c-.56.33-1,.53-1.23.68a4.46,4.46,0,0,0,2.73.64,4,4,0,0,1-2.67-.48.38.38,0,0,0-.37,0l0,0c-.41.31-.65.77-1.07,2a4.31,4.31,0,0,1,.71-1.9.34.34,0,0,0,.05-.29c-.47-1.34,0-2.09,1.08-3-.26.3-.05.06-.33.36a2.28,2.28,0,0,0-.61,2.75,4.16,4.16,0,0,1,1-.59,3.63,3.63,0,0,1,1.35-3.27,5.41,5.41,0,0,0-.55.62,3,3,0,0,0-.69,2.59,6.63,6.63,0,0,0,1.25-.76c1.27-1,1.45-2.58,1.63-3.83Z" transform="translate(-174.91 -42.66)"/><path class="cls-61" d="M181.42,79a4,4,0,0,1-3.11-1.89c-.68-1-1.48-2.6-2-3.5.95.48,3.06-.28,4.5-.16a3.21,3.21,0,0,1,2,1.15,1.53,1.53,0,0,1,.34,0,2.16,2.16,0,0,1,.81.92,15.86,15.86,0,0,1,.57,2,2.45,2.45,0,0,0,.35.68,32.72,32.72,0,0,0-3.44.79Z" transform="translate(-174.91 -42.66)"/><path class="cls-62" d="M177.78,73.82a3,3,0,0,1,1.78,1.76l.63.21a2.8,2.8,0,0,0-1.83-2.1l-.7.08.12,0Z" transform="translate(-174.91 -42.66)"/><path class="cls-63" d="M179.9,73.84A4,4,0,0,1,181.08,76l.48.16.57.21c-.14-1.12-.23-2.18-1.25-2.86h0a7.38,7.38,0,0,0-1.38.07,3.2,3.2,0,0,1,.45.3Z" transform="translate(-174.91 -42.66)"/><path class="cls-64" d="M178.31,77.13A4,4,0,0,0,181.42,79a32.72,32.72,0,0,1,3.44-.79,11.9,11.9,0,0,0-2.94-2c-1.85-.66-3.7-.73-5.59-2.63.5.9,1.3,2.49,2,3.5Z" transform="translate(-174.91 -42.66)"/><path class="cls-65" d="M183.26,74.93c.6.27.35,2.1,0,2.43-1.38,1.46-2.83,1.3-4.43.44A3.59,3.59,0,0,0,181.42,79a32.72,32.72,0,0,1,3.44-.79,2.45,2.45,0,0,1-.35-.68,15.86,15.86,0,0,0-.57-2,2.16,2.16,0,0,0-.81-.92,1.53,1.53,0,0,0-.34,0,5.8,5.8,0,0,0-.82-.7,5.18,5.18,0,0,1,.66.91c.23.34.38,0,.63.1Z" transform="translate(-174.91 -42.66)"/><path class="cls-66" d="M177.14,75.13c-.13-.38-.17-.81.29-1a5.83,5.83,0,0,1,2.11-.29,5,5,0,0,1,1.72-.25,2.2,2.2,0,0,0-.43-.09c-1.44-.12-3.55.64-4.5.16l.81,1.5Z" transform="translate(-174.91 -42.66)"/><path class="cls-67" d="M177.84,76.37a3.77,3.77,0,0,0,2.3,1.07c1,0,1.91-.78,2.94-.58a3,3,0,0,0-1.05-.51,13.7,13.7,0,0,0-2,.25,3.75,3.75,0,0,1-2.35-.77l-.21-.15.4.69Z" transform="translate(-174.91 -42.66)"/><path class="cls-68" d="M176.33,73.63a8.07,8.07,0,0,0,3.1,1.81,3,3,0,0,0-1.65-1.62,2.82,2.82,0,0,1,1.82,1.68c.53.17,1,.28,1.42.39a4.63,4.63,0,0,0-1.12-2,5.79,5.79,0,0,1,.85,1,4.76,4.76,0,0,1,.43,1.08l.43.13a7,7,0,0,1,1.29.55,5.41,5.41,0,0,0-.13-1.57,4,4,0,0,1,.3,1.67,9.05,9.05,0,0,1,1.79,1.52c-.55-.42-.94-.78-1.43-1.09-1.47,1.45-2.8,1.47-4.5.4,1.72.86,2.91.87,4.32-.51a6.22,6.22,0,0,0-1-.49,1.48,1.48,0,0,0-.92-.07,4,4,0,0,1-3.65-.64c1.56.91,2.17.77,3.78.45-1.87-.57-3.74-1-5.1-2.65Z" transform="translate(-174.91 -42.66)"/><path class="cls-69" d="M201.67,76.51a2.22,2.22,0,0,1-1.63-.69,2.25,2.25,0,0,1-.68-1.62V62.52l-1.75,1.09a1.76,1.76,0,0,1-1,.28,1.86,1.86,0,0,1-1.35-.54,1.82,1.82,0,0,1-.56-1.34,1.77,1.77,0,0,1,.26-.91,2,2,0,0,1,.63-.69l5-3.12a2.33,2.33,0,0,1,1.19-.35,2.14,2.14,0,0,1,1.59.66,2.17,2.17,0,0,1,.65,1.57v15a2.25,2.25,0,0,1-.68,1.62,2.19,2.19,0,0,1-1.63.69Zm12.58.22a7.3,7.3,0,0,1-5.95-2.43q-2-2.44-2-7.54c0-3.27.7-5.74,2.1-7.44a7.28,7.28,0,0,1,5.92-2.53q8,0,8,10,0,5-2.09,7.47a7.26,7.26,0,0,1-5.94,2.5Zm0-3.57a2.48,2.48,0,0,0,2.3-1.48,11.42,11.42,0,0,0,.77-4.92,11.47,11.47,0,0,0-.77-4.9,2.52,2.52,0,0,0-4.6,0,11.42,11.42,0,0,0-.77,4.92,11.68,11.68,0,0,0,.75,4.91,2.45,2.45,0,0,0,2.32,1.49Z" transform="translate(-174.91 -42.66)"/><path class="cls-70" d="M201.67,75.8a2.21,2.21,0,0,1-1.63-.68,2.25,2.25,0,0,1-.68-1.62V61.82l-1.75,1.09a1.76,1.76,0,0,1-1,.28,1.83,1.83,0,0,1-1.35-.55,1.8,1.8,0,0,1-.3-2.24,2,2,0,0,1,.63-.69l5-3.12a2.24,2.24,0,0,1,1.19-.35,2.14,2.14,0,0,1,1.59.66,2.17,2.17,0,0,1,.65,1.57v15a2.25,2.25,0,0,1-.68,1.62,2.18,2.18,0,0,1-1.63.68Zm12.58.23a7.3,7.3,0,0,1-5.95-2.43q-2-2.44-2-7.54,0-4.91,2.1-7.44a7.28,7.28,0,0,1,5.92-2.54q8,0,8,10,0,5-2.09,7.47a7.26,7.26,0,0,1-5.94,2.5Zm0-3.58a2.47,2.47,0,0,0,2.3-1.47,11.42,11.42,0,0,0,.77-4.92,11.47,11.47,0,0,0-.77-4.9,2.52,2.52,0,0,0-4.6,0,11.5,11.5,0,0,0-.77,4.93A11.68,11.68,0,0,0,212,71a2.44,2.44,0,0,0,2.32,1.48Z" transform="translate(-174.91 -42.66)"/><path class="cls-71" d="M195.83,60.07a1.72,1.72,0,0,0-.5.54,1.42,1.42,0,0,0,.24,1.73,1.41,1.41,0,0,0,1.05.43,1.48,1.48,0,0,0,.76-.21h0l2.4-1.49V73.5a1.89,1.89,0,0,0,3.77,0v-15a1.76,1.76,0,0,0-.52-1.28,1.74,1.74,0,0,0-1.29-.53,1.8,1.8,0,0,0-1,.29l-4.95,3.12Zm18.42,15.54a6.92,6.92,0,0,0,5.62-2.35c1.61-1.93,2-4.77,2-7.2,0-2.8-.47-6.26-2.81-8.13a7.39,7.39,0,0,0-4.73-1.42,6.87,6.87,0,0,0-5.59,2.38c-1.61,2-2,4.73-2,7.17s.33,5.35,1.92,7.27a6.93,6.93,0,0,0,5.62,2.28ZM217,61a12.2,12.2,0,0,1,.82,5.09,12.18,12.18,0,0,1-.82,5.12,3,3,0,0,1-5.37,0,12.58,12.58,0,0,1-.79-5.1,12.18,12.18,0,0,1,.82-5.12A2.94,2.94,0,0,1,217,61Z" transform="translate(-174.91 -42.66)"/><path class="cls-72" d="M195.83,60.07a1.72,1.72,0,0,0-.5.54,1.42,1.42,0,0,0,.24,1.73,1.41,1.41,0,0,0,1.05.43,1.48,1.48,0,0,0,.76-.21h0l2.4-1.49v5.06h3.77V58.47a1.76,1.76,0,0,0-.52-1.28,1.74,1.74,0,0,0-1.29-.53,1.8,1.8,0,0,0-1,.29l-4.95,3.12Zm26,6.05v-.06c0-2.8-.47-6.26-2.81-8.13a7.39,7.39,0,0,0-4.73-1.42,6.87,6.87,0,0,0-5.59,2.38c-1.61,2-2,4.73-2,7.17v.06h4.08v-.06a12.18,12.18,0,0,1,.82-5.12A2.94,2.94,0,0,1,217,61a12.2,12.2,0,0,1,.82,5.09v.06Z" transform="translate(-174.91 -42.66)"/><path class="cls-73" d="M225.22,84.68a22.72,22.72,0,0,0,8.67-9.44c2.9-5.9,3.47-14-.32-19.44a20.89,20.89,0,0,1-.81,18.87,21.45,21.45,0,0,1-8.37,8.66h0a.8.8,0,0,0,.79,1.38l0,0Z" transform="translate(-174.91 -42.66)"/><path class="cls-74" d="M227.91,82.52a19.83,19.83,0,0,0,4.6-5.19A23.34,23.34,0,0,0,236,67.23a18.9,18.9,0,0,0-1-8.6,21.21,21.21,0,0,1,.71,8.52,22.11,22.11,0,0,1-3.6,9.84,31,31,0,0,1-4.61,4.94c-.38.38-.37.56-.27.69s.38.2.74-.1Z" transform="translate(-174.91 -42.66)"/><path class="cls-75" d="M238.36,71.4a2.79,2.79,0,0,0,1.53-.69,6,6,0,0,0,1.66-2.31,2.61,2.61,0,0,1-.93.39,4.25,4.25,0,0,0,1-.77.19.19,0,0,0,0-.08c.28-1.14.18-3.14.39-4a22.63,22.63,0,0,1-2.66,1.13l-.41.17c0,.17,0,.36-.06.52s-.14.12-.21,0a.83.83,0,0,1-.1-.34c-1.54.71-3,1.75-3.09,3.27,0,.82.49,1.44.25,2.32.64,0,1.76.53,2.56.42Z" transform="translate(-174.91 -42.66)"/><path class="cls-76" d="M238.44,69a23.31,23.31,0,0,0,3.64-5.06c-.21.88-.11,2.88-.39,4a.19.19,0,0,1,0,.08,4.25,4.25,0,0,1-1,.77,2.61,2.61,0,0,0,.93-.39,6,6,0,0,1-1.66,2.31,2.79,2.79,0,0,1-1.53.69c-.8.11-1.92-.44-2.56-.42a18.15,18.15,0,0,0,2.64-2Z" transform="translate(-174.91 -42.66)"/><path class="cls-77" d="M241.74,65.85c0-.55-.09-1.07-.35-1.19a3.42,3.42,0,0,0-1.78.31,19.3,19.3,0,0,0,2.47-1c-.21.88-.11,2.88-.39,4a.19.19,0,0,1,0,.08.86.86,0,0,1-.14.13,8.84,8.84,0,0,0,.21-2.3Zm-.19,2.55a3.24,3.24,0,0,1-.27.6,4.88,4.88,0,0,0,.18-.54.24.24,0,0,0,.09-.06Z" transform="translate(-174.91 -42.66)"/><path class="cls-78" d="M239.37,68a5.46,5.46,0,0,1-.25-2.82l.3-.13.54-.21a4.23,4.23,0,0,0-.24,2.73l-.35.43Z" transform="translate(-174.91 -42.66)"/><path class="cls-79" d="M238.2,65.6a6.38,6.38,0,0,0,1,2.64,14.45,14.45,0,0,1-1.2,1.15,5.12,5.12,0,0,1-.49-3.37c.23-.15.48-.29.73-.42Z" transform="translate(-174.91 -42.66)"/><path class="cls-80" d="M236.91,67.3c-1,2.38,1.76,4.56,4.19,2a7,7,0,0,1-1.21,1.41,2.79,2.79,0,0,1-1.53.69c-.8.11-1.92-.44-2.56-.42.24-.88-.27-1.5-.25-2.32,0-1.4,1.32-2.39,2.73-3.1a3.48,3.48,0,0,0-1.37,1.74Z" transform="translate(-174.91 -42.66)"/><path class="cls-81" d="M241,69.46a5,5,0,0,1-3-.13l.35-.31A5,5,0,0,0,241.3,69c-.09.17-.19.33-.3.5Zm-3.14,0a5.23,5.23,0,0,0,2.38.47.56.56,0,0,1-.26.17,3.38,3.38,0,0,1-2.48-.34l.36-.3Z" transform="translate(-174.91 -42.66)"/><path class="cls-82" d="M242.08,63.92a34.27,34.27,0,0,1-2.35,3.49,4.33,4.33,0,0,1,.13-2.36,4.16,4.16,0,0,0-.26,2.51A16.61,16.61,0,0,1,238,69.29a5.29,5.29,0,0,1-.52-3.07,4.73,4.73,0,0,0,.38,3.19,28.63,28.63,0,0,1-2.37,1.64.66.66,0,0,0-.19.51,11.85,11.85,0,0,1,1.9-1.41.4.4,0,0,1,.42,0,3.71,3.71,0,0,0,2.46.31,4.27,4.27,0,0,1-2.57-.5l.52-.41c.23-.19.44-.38.64-.57a.26.26,0,0,1,.23-.07,3.7,3.7,0,0,0,2.49-.33,4.2,4.2,0,0,1-2.48.17,13.72,13.72,0,0,0,1.26-1.52.53.53,0,0,1,.26-.21,3.41,3.41,0,0,0,1.33-.82,4.94,4.94,0,0,1-1.37.7c.61-.91,1.14-1.89,1.74-2.94Z" transform="translate(-174.91 -42.66)"/><path class="cls-83" d="M229.93,72.77a4.3,4.3,0,0,1-.55-2,1.23,1.23,0,0,0,.5.51,9.6,9.6,0,0,1-.51-1.22,12.11,12.11,0,0,1,1-4.14,16.3,16.3,0,0,1,2.52,2.25,1.21,1.21,0,0,1,.36,1.1.44.44,0,0,0,.28-.29,6.06,6.06,0,0,1,1,2,2.38,2.38,0,0,1-.31,1.59,18.63,18.63,0,0,1-1.07,1.67,11.51,11.51,0,0,1-1.86-.52,3.22,3.22,0,0,1-1.35-1Z" transform="translate(-174.91 -42.66)"/><path class="cls-84" d="M230.39,66a12.11,12.11,0,0,0-1,4.14,9.6,9.6,0,0,0,.51,1.22,1.23,1.23,0,0,1-.5-.51,4.3,4.3,0,0,0,.55,2,3.22,3.22,0,0,0,1.35,1,11.51,11.51,0,0,0,1.86.52c-.49-1.14-1.13-2-1.52-3.17A40.68,40.68,0,0,1,230.39,66Z" transform="translate(-174.91 -42.66)"/><path class="cls-85" d="M232.21,73a4.5,4.5,0,0,1-2.82-2.13,4.29,4.29,0,0,0,.54,1.87,3.22,3.22,0,0,0,1.35,1,11.51,11.51,0,0,0,1.86.52,18.63,18.63,0,0,0,1.07-1.67,2.38,2.38,0,0,0,.31-1.59,5,5,0,0,0-.57-1.39c.39,1.25.28,3.84-1.74,3.37Z" transform="translate(-174.91 -42.66)"/><path class="cls-86" d="M231.87,67.17a4.78,4.78,0,0,1-.34,1.26,3.59,3.59,0,0,0,.14-1.44l-.33-.28a1.6,1.6,0,0,1,0,.66,2.7,2.7,0,0,1-.42,1.22l.3,1.24a3.92,3.92,0,0,0,.9-2.41l-.27-.25Z" transform="translate(-174.91 -42.66)"/><path class="cls-87" d="M231.6,71.1a3.69,3.69,0,0,1-2-2.49,9.58,9.58,0,0,0-.17,1.18,4.24,4.24,0,0,0,2.72,2.41c-.21-.39-.33-.71-.51-1.1ZM230.4,70a4.12,4.12,0,0,0,1.18,1l-.16-.46a4.71,4.71,0,0,1-.88-.66,4.52,4.52,0,0,1-.84-1.18,4,4,0,0,0,.7,1.32Z" transform="translate(-174.91 -42.66)"/><path class="cls-88" d="M229.39,69.85c.19-1,.62-3.06,1.22-3.28.43-.17,1.52.85,2.2,1.54A16.3,16.3,0,0,0,230.39,66a12,12,0,0,0-1,3.88Z" transform="translate(-174.91 -42.66)"/><path class="cls-89" d="M232,72l.23.43a3.74,3.74,0,0,0,1.06-2.76,5.88,5.88,0,0,1-.77,1.46A7.41,7.41,0,0,0,232,72Z" transform="translate(-174.91 -42.66)"/><path class="cls-90" d="M230.39,66c.24.88.4,1.69.58,2.49a3.58,3.58,0,0,0,.41-1.58,3.57,3.57,0,0,1-.37,1.78c.15.66.31,1.31.53,2a4.66,4.66,0,0,0,.91-2.76,4.21,4.21,0,0,1-.83,3,12.55,12.55,0,0,0,.79,1.82l0,0a5.11,5.11,0,0,0,1.23-3,4.83,4.83,0,0,1-1.15,3.15,6.79,6.79,0,0,1,.62,1.41,3.14,3.14,0,0,1-.24-.39c-.27-.48-.29-.45-.56-.53a4.66,4.66,0,0,1-2.74-1.83,5.18,5.18,0,0,0,3,1.73c-.09-.18-.18-.36-.28-.54-.24-.42-.31-.52-.58-.65A3.87,3.87,0,0,1,229.53,70a4,4,0,0,0,2.4,2,11.2,11.2,0,0,1-.55-1.46c-.14-.46-.13-.42-.34-.59a2.85,2.85,0,0,1-1.27-2,3,3,0,0,0,1.43,1.91c-.29-1.15-.5-2.42-.81-4Z" transform="translate(-174.91 -42.66)"/><path class="cls-91" d="M236.85,63c-.3-1-1.52-1.45-1.34-2.94a3.8,3.8,0,0,1,1.29-2.13c.68-.68,2.15-1.56,2.16-2.63.29.84.7,1.18.92,1.87a7.54,7.54,0,0,1,.27,1.11,1.35,1.35,0,0,1-.16.9,3.06,3.06,0,0,1-.23.36,2.16,2.16,0,0,0,.27-.25s.1,0,.14,0l.08-.08a4.06,4.06,0,0,1-.33,2.23,3.67,3.67,0,0,1-3.07,1.6Z" transform="translate(-174.91 -42.66)"/><path class="cls-92" d="M239.8,56.91a5.79,5.79,0,0,1-.57,1.5,8.57,8.57,0,0,0,.27-2,5.41,5.41,0,0,1-.54-1.08,17,17,0,0,1-.37,4.55,2.68,2.68,0,0,0,1.5-1.86c0-.17-.07-.33-.11-.48a1.59,1.59,0,0,1-.22.35,3.21,3.21,0,0,0,.14-.64l0-.05a1.69,1.69,0,0,0-.08-.24Z" transform="translate(-174.91 -42.66)"/><path class="cls-93" d="M238.46,60.17a16.12,16.12,0,0,0,.5-4.89c0,1.07-1.48,1.95-2.16,2.63A3.8,3.8,0,0,0,235.51,60c-.18,1.49,1,2,1.34,2.94a20.76,20.76,0,0,0,1.61-2.81Z" transform="translate(-174.91 -42.66)"/><path class="cls-94" d="M237.52,61.94c-1.6-.59-1.76-2.29-1.09-3.64a3.23,3.23,0,0,0-.92,1.74c-.18,1.49,1,2,1.34,2.94a3.67,3.67,0,0,0,3.07-1.6,3,3,0,0,0,.34-1.39,2.9,2.9,0,0,1-.66,1.32,1.9,1.9,0,0,1-2.08.63Z" transform="translate(-174.91 -42.66)"/><path class="cls-95" d="M237.32,59.06a3,3,0,0,0,.74,2l.12-.26a2.82,2.82,0,0,1-.63-1.78,3.2,3.2,0,0,0,.79,1.44,6.52,6.52,0,0,0,.34-1.1,3.16,3.16,0,0,1-.55-2.58,3,3,0,0,0-.81,2.32Z" transform="translate(-174.91 -42.66)"/><path class="cls-96" d="M239,55.28a14.87,14.87,0,0,1-.27,4.44,2.74,2.74,0,0,0,1.37-1.62,2.59,2.59,0,0,1-1.21,1.67c-.31.21-.17.07-.31.43a7.37,7.37,0,0,1-.51,1,3.58,3.58,0,0,0,2.17-1.66,3.66,3.66,0,0,1-2,1.73c-.2.09-.29.08-.41.27s-.19.29-.28.43a5.58,5.58,0,0,0,2-1,5.29,5.29,0,0,1-2.14,1.2c-.2.29-1.12,1.68-1.27,2-.1-.83.12-.54,1-2-.61-1.22-1.46-2-1-3.43-.31,1.45.42,2,1.09,3.28a9,9,0,0,0,.6-.86c.08-.13.13-.19,0-.33a3.36,3.36,0,0,1-.56-2.12,3.08,3.08,0,0,0,.73,2.11,6.53,6.53,0,0,0,.56-1.55,3.29,3.29,0,0,1-.51-2.47,3.33,3.33,0,0,0,.54,2.3,17.37,17.37,0,0,0,.32-3.9Z" transform="translate(-174.91 -42.66)"/><path class="cls-97" d="M237.19,60.38a3.78,3.78,0,0,1,0-2.85c-.16.14-.3.26-.42.38l-.3.31a2.56,2.56,0,0,0,.69,2.16Z" transform="translate(-174.91 -42.66)"/><path class="cls-98" d="M234.54,57.74c0-.46.7-1.34.77-1.8a3.89,3.89,0,0,0-1.23-3,1.37,1.37,0,0,1-.05.85,2.8,2.8,0,0,0-.44-1.3,5.43,5.43,0,0,0-2.41-1,17.52,17.52,0,0,1-1.85-.19,2.19,2.19,0,0,1,.76,1,3.59,3.59,0,0,0,.62.61,1.38,1.38,0,0,1-.49-.09c.08.42.13.93.22,1.6a10.65,10.65,0,0,0,.24,1.6,2.43,2.43,0,0,0,2,1.83,11.09,11.09,0,0,1,1.81-.09Z" transform="translate(-174.91 -42.66)"/><path class="cls-99" d="M234.08,52.89a3.89,3.89,0,0,1,1.23,3c-.07.46-.73,1.34-.77,1.8-1-1.06-.76-2.58-2-4.19a6.4,6.4,0,0,0-3.23-2.29,17.52,17.52,0,0,0,1.85.19,5.43,5.43,0,0,1,2.41,1,2.8,2.8,0,0,1,.44,1.3,1.37,1.37,0,0,0,.05-.85Z" transform="translate(-174.91 -42.66)"/><path class="cls-100" d="M234,56.41a2.94,2.94,0,0,0,.38-3.13,3.58,3.58,0,0,1,.89,2.66c-.07.46-.73,1.34-.77,1.8a11.09,11.09,0,0,0-1.81.09,2.43,2.43,0,0,1-2-1.83,4,4,0,0,1-.15-.77c.45,1.53,2.2,2.47,3.51,1.18Z" transform="translate(-174.91 -42.66)"/><path class="cls-101" d="M232.57,52.45a3.08,3.08,0,0,0-.37-.75A6.36,6.36,0,0,1,233,52a3.75,3.75,0,0,1,.54,3.23,6.27,6.27,0,0,0-4.16-4,17.52,17.52,0,0,0,1.85.19h0a3.15,3.15,0,0,1,1.29,1.18s.08,0,.08,0a.5.5,0,0,0,0-.16Z" transform="translate(-174.91 -42.66)"/><path class="cls-102" d="M234.75,55a4.11,4.11,0,0,1-.46,1.19,3.17,3.17,0,0,0-.27.66,2.41,2.41,0,0,0,.35.67c-.14-.21-.15-.37,0-.76a2.87,2.87,0,0,0,.37-1.76Z" transform="translate(-174.91 -42.66)"/><path class="cls-103" d="M231.74,55.28a3.19,3.19,0,0,1-1.31-1c0-.12,0-.24-.05-.35a2.68,2.68,0,0,0,1,.71,3.61,3.61,0,0,0,2,.29c.06.17.11.33.17.48a4.08,4.08,0,0,1-1.81-.15Z" transform="translate(-174.91 -42.66)"/><path class="cls-104" d="M232.48,52.59a5.53,5.53,0,0,0-1.38-.94c-.21-.09-.74-.25-.94-.07a.26.26,0,0,0-.08.27,2.45,2.45,0,0,0,.54,1,3,3,0,0,1-.53-.54,2.19,2.19,0,0,0-.76-1,17.52,17.52,0,0,0,1.85.19h0a3,3,0,0,1,1.25,1.13Z" transform="translate(-174.91 -42.66)"/><path class="cls-105" d="M233.61,55.64c0,.2.11.39.17.59a3.82,3.82,0,0,1-1.77-.17c-.07-.06-.06-.12-.19-.26a5.45,5.45,0,0,1-.46-.38,4.11,4.11,0,0,0,2.25.22Z" transform="translate(-174.91 -42.66)"/><path class="cls-106" d="M229.33,51.26a6.32,6.32,0,0,1,3,2.12,2.91,2.91,0,0,1-2.16-1,2.84,2.84,0,0,0,2.25,1,10,10,0,0,1,.63,1c.08.16.16.31.23.48a4,4,0,0,1-2.88-.89,3.19,3.19,0,0,0,1.43.9,9.48,9.48,0,0,0,1.49.1,12.15,12.15,0,0,1,.41,1.32l0,.08c-1.31.08-2.21.11-3.11-.93a2.46,2.46,0,0,0,1.16,1,9.08,9.08,0,0,0,2,.09,3.41,3.41,0,0,0,.72,1.2,3.42,3.42,0,0,1-.49-.91c.18-.55.5-.94.64-1.4a2.7,2.7,0,0,0-.14-1.81c.37,1.43-.05,1.89-.55,3.1,0-.13-.08-.27-.13-.42l-.2-.68a1,1,0,0,1-.06-.54,6.94,6.94,0,0,0,.08-1.41,5,5,0,0,0-.64-1.46,4,4,0,0,1,.45,2.84,4.27,4.27,0,0,0-.27-.67,6.5,6.5,0,0,0-3.9-3.12Z" transform="translate(-174.91 -42.66)"/><path class="cls-107" d="M235.47,66.63a2.09,2.09,0,0,1,0-.66c.15-.92.66-2.49-.13-3.39a6.67,6.67,0,0,0-2.62-1.76,6.21,6.21,0,0,1-2.17-1.55c0,.68-.52,1.45-.48,2.35a6.81,6.81,0,0,0,1.27,3.67c.94.85,2.56.69,3.18.81a3.58,3.58,0,0,1,.95.53Z" transform="translate(-174.91 -42.66)"/><path class="cls-108" d="M230.65,64.15a3.12,3.12,0,0,0,1.94.18,1.79,1.79,0,0,1-1.41-.67,3.06,3.06,0,0,0,1.76,0,5.75,5.75,0,0,1,1.22.74,4.57,4.57,0,0,1-3.08.55,4.38,4.38,0,0,1-.43-.84Z" transform="translate(-174.91 -42.66)"/><path class="cls-109" d="M234.15,64.34c-.54-.4-1.17-.65-1.73-1-1.53-1-1.75-2.84-1.87-4a6.21,6.21,0,0,0,2.17,1.55,6.67,6.67,0,0,1,2.62,1.76c.79.9.28,2.47.13,3.39a2.09,2.09,0,0,0,0,.66,3.87,3.87,0,0,0-1.32-2.29Z" transform="translate(-174.91 -42.66)"/><path class="cls-110" d="M233.63,65.64a2.27,2.27,0,0,0,1.27-2.73,4.67,4.67,0,0,0-1.42-1.73,5.39,5.39,0,0,1,1.86,1.4c.79.9.28,2.47.13,3.39a2.09,2.09,0,0,0,0,.66,3.58,3.58,0,0,0-.95-.53,8.25,8.25,0,0,1-2.7-.48,2.45,2.45,0,0,0,1.81,0Z" transform="translate(-174.91 -42.66)"/><path class="cls-111" d="M231.43,60.08a4.22,4.22,0,0,1,1.39,3,2,2,0,0,1-.1.41l-.17-.1-.13-.09a3.25,3.25,0,0,1-.5-.4,3.7,3.7,0,0,0-.3-1.7,3.6,3.6,0,0,0-.06,1.29,6.26,6.26,0,0,1-1-3.24,3.85,3.85,0,0,0,.88.81Z" transform="translate(-174.91 -42.66)"/><path class="cls-112" d="M232.28,60.6a3.25,3.25,0,0,0-1.26-.34c-.6,0-.79.93-.82,1.4a6.91,6.91,0,0,0,.15,1.57,7.16,7.16,0,0,1-.28-1.61c0-.9.48-1.67.48-2.35a5.46,5.46,0,0,0,1.73,1.33Z" transform="translate(-174.91 -42.66)"/><path class="cls-113" d="M230.55,59.27c.14,1.94.63,3.25,1.8,4.14a2.7,2.7,0,0,1-2.12-1l.25.31a2.76,2.76,0,0,0,1.93.78,1.39,1.39,0,0,1,.4.19c.56.33.94.53,1.23.68a4.47,4.47,0,0,1-2.73.64,4,4,0,0,0,2.67-.48.36.36,0,0,1,.36,0l0,0c.41.31.66.77,1.08,2a4.43,4.43,0,0,0-.71-1.9.31.31,0,0,1,0-.29c.47-1.34,0-2.09-1.08-3l.32.36a2.25,2.25,0,0,1,.61,2.75,3.82,3.82,0,0,0-1-.59,3,3,0,0,0-.75-2.68,3.29,3.29,0,0,0-.59-.59,5.33,5.33,0,0,1,.54.62,3,3,0,0,1,.69,2.59,6.59,6.59,0,0,1-1.24-.76c-1.27-1-1.45-2.58-1.63-3.83Z" transform="translate(-174.91 -42.66)"/><path class="cls-114" d="M235.57,79a4,4,0,0,0,3.1-1.89c.68-1,1.49-2.6,2-3.5-.94.48-3.06-.28-4.49-.16a3.21,3.21,0,0,0-2,1.15,1.59,1.59,0,0,0-.35,0,2.15,2.15,0,0,0-.8.92,15.86,15.86,0,0,0-.57,2,2.45,2.45,0,0,1-.35.68,32.72,32.72,0,0,1,3.44.79Z" transform="translate(-174.91 -42.66)"/><path class="cls-115" d="M239.2,73.82a3,3,0,0,0-1.77,1.76l-.64.21a2.83,2.83,0,0,1,1.84-2.1l.7.08-.13,0Z" transform="translate(-174.91 -42.66)"/><path class="cls-116" d="M237.09,73.84A3.87,3.87,0,0,0,235.91,76c-.16,0-.33.1-.48.16l-.57.21c.14-1.12.23-2.18,1.25-2.86h0a7.42,7.42,0,0,1,1.38.07,2.71,2.71,0,0,0-.45.3Z" transform="translate(-174.91 -42.66)"/><path class="cls-117" d="M238.67,77.13a4,4,0,0,1-3.1,1.89,32.72,32.72,0,0,0-3.44-.79,11.9,11.9,0,0,1,2.94-2c1.84-.66,3.69-.73,5.58-2.63-.49.9-1.3,2.49-2,3.5Z" transform="translate(-174.91 -42.66)"/><path class="cls-118" d="M233.72,74.93c-.59.27-.34,2.1,0,2.43,1.39,1.46,2.83,1.3,4.44.44A3.61,3.61,0,0,1,235.57,79a32.72,32.72,0,0,0-3.44-.79,2.45,2.45,0,0,0,.35-.68,15.86,15.86,0,0,1,.57-2,2.15,2.15,0,0,1,.8-.92,1.59,1.59,0,0,1,.35,0,6.42,6.42,0,0,1,.81-.7,5.7,5.7,0,0,0-.65.91c-.24.34-.38,0-.64.1Z" transform="translate(-174.91 -42.66)"/><path class="cls-119" d="M239.85,75.13c.12-.38.17-.81-.29-1a5.86,5.86,0,0,0-2.11-.29,5.13,5.13,0,0,0-1.73-.25,2.29,2.29,0,0,1,.44-.09c1.43-.12,3.55.64,4.49.16-.22.4-.5.94-.8,1.5Z" transform="translate(-174.91 -42.66)"/><path class="cls-120" d="M239.15,76.37a3.77,3.77,0,0,1-2.31,1.07c-1,0-1.9-.78-2.93-.58a2.87,2.87,0,0,1,1.05-.51,13.86,13.86,0,0,1,2,.25,3.79,3.79,0,0,0,2.35-.77l.21-.15-.4.69Z" transform="translate(-174.91 -42.66)"/><path class="cls-121" d="M240.65,73.63a8.11,8.11,0,0,1-3.09,1.81,3,3,0,0,1,1.64-1.62,2.81,2.81,0,0,0-1.81,1.68c-.53.17-1,.28-1.42.39a4.63,4.63,0,0,1,1.12-2,6.44,6.44,0,0,0-.86,1,4.77,4.77,0,0,0-.42,1.08l-.44.13a6.57,6.57,0,0,0-1.28.55,5.42,5.42,0,0,1,.12-1.57,4.15,4.15,0,0,0-.3,1.67,9.32,9.32,0,0,0-1.78,1.52c.54-.42.94-.78,1.43-1.09,1.47,1.45,2.8,1.47,4.49.4-1.71.86-2.91.87-4.31-.51a6.22,6.22,0,0,1,1-.49,1.48,1.48,0,0,1,.92-.07,4,4,0,0,0,3.65-.64c-1.56.91-2.17.77-3.78.45,1.87-.57,3.74-1,5.09-2.65Z" transform="translate(-174.91 -42.66)"/><path class="cls-122" d="M208.49,74.41c10.22,0,19.29,2,24.95,5.11a1.71,1.71,0,0,1,.61,2.46,30.73,30.73,0,0,1-8.59,8.64c1.17-.79.47-2-.44-2.58-2.46-1.63-8.93-2.79-16.53-2.79a100.48,100.48,0,0,1,0-10.84Z" transform="translate(-174.91 -42.66)"/><path class="cls-123" d="M208.49,74.41c-10.22,0-19.28,2-25,5.11a1.73,1.73,0,0,0-.61,2.46,30.9,30.9,0,0,0,8.6,8.64c-1.17-.79-.47-2,.44-2.58,2.46-1.63,8.93-2.79,16.52-2.79a95.58,95.58,0,0,0,0-10.84Z" transform="translate(-174.91 -42.66)"/><path class="cls-124" d="M190.44,86.49a1.89,1.89,0,0,0-.78,2.78l.58.45a2,2,0,0,1,1-2.46c2.75-1.76,9.46-3,17.29-3v-1c-8.07,0-15,1.32-18.05,3.21Zm-6.56-3.16a2.19,2.19,0,0,1,1.2-2.26c5.08-2.83,13.67-4.68,23.41-4.68v-1c-10,0-18.81,1.93-24.18,4.9a2.35,2.35,0,0,0-1.25,1.86c.26.4.54.79.82,1.17Z" transform="translate(-174.91 -42.66)"/><path class="cls-125" d="M208.49,75.26c-8.94,0-17,1.6-22.36,4.13,5.44-2.45,13.44-4,22.36-4v-.14Zm-16.13,10.3c3.56-1.38,9.46-2.28,16.13-2.28v-.1c-6.7,0-12.62.94-16.13,2.38Z" transform="translate(-174.91 -42.66)"/><path class="cls-126" d="M192.06,88A39.42,39.42,0,0,1,184.48,79l-.94.48a1.79,1.79,0,0,0-.64.61,1.61,1.61,0,0,0,.16.38,34.85,34.85,0,0,0,8,8.5,2.6,2.6,0,0,1,.9-1l.09-.06Z" transform="translate(-174.91 -42.66)"/><path class="cls-127" d="M226.55,86.49a1.89,1.89,0,0,1,.78,2.78l-.58.45a2,2,0,0,0-1-2.46c-2.75-1.76-9.45-3-17.29-3v-1c8.08,0,15,1.32,18.06,3.21Zm6.56-3.16a2.21,2.21,0,0,0-1.2-2.26c-5.08-2.83-13.67-4.68-23.42-4.68v-1c10,0,18.82,1.93,24.19,4.9a2.35,2.35,0,0,1,1.25,1.86c-.26.4-.54.79-.82,1.17Z" transform="translate(-174.91 -42.66)"/><path class="cls-125" d="M208.49,75.26c8.95,0,17,1.6,22.36,4.13-5.43-2.45-13.44-4-22.36-4v-.14Zm16.14,10.3c-3.56-1.38-9.46-2.28-16.14-2.28v-.1c6.71,0,12.63.94,16.14,2.38Z" transform="translate(-174.91 -42.66)"/><path class="cls-128" d="M224.93,88A39.68,39.68,0,0,0,232.51,79l.93.48a1.74,1.74,0,0,1,.65.61,1.61,1.61,0,0,1-.16.38,35,35,0,0,1-8,8.5,2.69,2.69,0,0,0-.9-1l-.09-.06Z" transform="translate(-174.91 -42.66)"/><circle class="cls-129" cx="15.19" cy="45.17" r="3.25"/><path class="cls-130" d="M235.72,80.78a3.25,3.25,0,1,1-3.24-3.25A3.25,3.25,0,0,1,235.72,80.78Z" transform="translate(-174.91 -42.66)"/><path class="cls-131" d="M198.22,83.25a.6.6,0,0,1-.47-.09.64.64,0,0,1-.22-.43L197,78.59a.67.67,0,0,1,.14-.51.62.62,0,0,1,.45-.26.66.66,0,0,1,.51.13.69.69,0,0,1,.27.46l.5,3.62,1.87-.26a.58.58,0,0,1,.42.11.56.56,0,0,1,.21.37.52.52,0,0,1-.11.42.5.5,0,0,1-.36.22l-2.64.36Zm4.33-.52a.56.56,0,0,1-.65-.57L201.61,78a.62.62,0,0,1,.13-.46.64.64,0,0,1,.44-.19l2.63-.18a.56.56,0,0,1,.41.14.55.55,0,0,1,.18.38.54.54,0,0,1-.13.4.52.52,0,0,1-.38.19l-1.88.13.07,1.05,1.55-.1a.55.55,0,0,1,.58.5.54.54,0,0,1-.13.39.52.52,0,0,1-.37.19l-1.56.1.08,1.06,2-.14a.55.55,0,0,1,.59.51.55.55,0,0,1-.51.6l-2.78.19Zm5.92-.18a1.07,1.07,0,0,1-1-.72l-1.33-3.92a.6.6,0,0,1,0-.22.67.67,0,0,1,.2-.47.65.65,0,0,1,.47-.2.71.71,0,0,1,.4.13.67.67,0,0,1,.24.34l.87,2.82a5.27,5.27,0,0,1,.17.64l0,.12a.35.35,0,0,0,0,.14h0l0-.14s0-.09,0-.12a5.27,5.27,0,0,1,.17-.64l.84-2.86a.64.64,0,0,1,.22-.32.63.63,0,0,1,.37-.12.61.61,0,0,1,.45.18.56.56,0,0,1,.19.44.45.45,0,0,1,0,.2l-1.3,4a1,1,0,0,1-.38.52,1,1,0,0,1-.63.21Zm3.54,0a.58.58,0,0,1-.44-.19.6.6,0,0,1-.12-.46l.28-4.19a.67.67,0,0,1,.19-.44.62.62,0,0,1,.46-.12l2.64.18a.52.52,0,0,1,.38.19.54.54,0,0,1,.13.4.52.52,0,0,1-.19.38.53.53,0,0,1-.4.14l-1.88-.13L213,79.37l1.55.11a.53.53,0,0,1,.37.18.5.5,0,0,1,.13.39.53.53,0,0,1-.18.37.54.54,0,0,1-.39.14l-1.56-.11-.07,1,2,.14a.56.56,0,0,1,.38.19.56.56,0,0,1-.06.78.5.5,0,0,1-.4.14L212,82.56Zm4.51.38a.55.55,0,0,1-.52-.69l.56-4.13a.71.71,0,0,1,.27-.46.66.66,0,0,1,.51-.13.67.67,0,0,1,.59.78l-.5,3.62,1.88.26a.54.54,0,0,1,.37.22.55.55,0,0,1,.11.41.57.57,0,0,1-.22.37.5.5,0,0,1-.42.11l-2.63-.36Z" transform="translate(-174.91 -42.66)"/><path class="cls-132" d="M198.2,83.11l2.64-.36a.42.42,0,0,0,.27-.16.41.41,0,0,0,.08-.32A.37.37,0,0,0,201,82a.38.38,0,0,0-.31-.09l-2,.28-.52-3.76a.52.52,0,0,0-.21-.37.54.54,0,0,0-.41-.1.52.52,0,0,0-.36.21.52.52,0,0,0-.11.4l.57,4.14a.47.47,0,0,0,.16.33.49.49,0,0,0,.37.07Zm4.34-.52,2.78-.19a.44.44,0,0,0,.28-.14.43.43,0,0,0,.1-.31.4.4,0,0,0-.14-.28.37.37,0,0,0-.3-.1l-2.17.15L203,80.38l1.7-.11a.4.4,0,0,0,.27-.14.45.45,0,0,0,.1-.29.4.4,0,0,0-.14-.27.35.35,0,0,0-.29-.1l-1.69.11-.09-1.33,2-.14a.37.37,0,0,0,.28-.14.37.37,0,0,0,.1-.3.38.38,0,0,0-.14-.28.4.4,0,0,0-.3-.11l-2.63.18a.5.5,0,0,0-.34.14.52.52,0,0,0-.1.36l.29,4.19a.46.46,0,0,0,.14.34.47.47,0,0,0,.36.1Zm3.72-4.72,1.34,3.91a.84.84,0,0,0,.33.45.88.88,0,0,0,.54.18,1,1,0,0,0,.55-.18.84.84,0,0,0,.32-.45l1.31-4h0a.4.4,0,0,0,0-.15.43.43,0,0,0-.15-.34.44.44,0,0,0-.34-.14.43.43,0,0,0-.29.1.41.41,0,0,0-.17.24l-.85,2.86c-.06.2-.11.42-.16.63h0a.52.52,0,0,0,0,.11.75.75,0,0,1,0,.16l0,.1h-.24l0-.1,0-.15,0-.12h0c0-.21-.1-.42-.16-.63l-.87-2.82a.49.49,0,0,0-.19-.26.46.46,0,0,0-.32-.1.53.53,0,0,0-.53.52,1.13,1.13,0,0,0,0,.18ZM212,82.42l2.78.19a.37.37,0,0,0,.3-.1.4.4,0,0,0,.14-.29.38.38,0,0,0-.1-.3.44.44,0,0,0-.28-.14l-2.17-.14.09-1.34,1.7.12a.41.41,0,0,0,.42-.38.36.36,0,0,0-.1-.29.39.39,0,0,0-.27-.13l-1.69-.12.09-1.33,2,.14a.41.41,0,0,0,.3-.11.4.4,0,0,0,.14-.28.42.42,0,0,0-.1-.3.4.4,0,0,0-.28-.14l-2.64-.18a.52.52,0,0,0-.36.09.54.54,0,0,0-.14.34l-.28,4.19a.46.46,0,0,0,.09.36.49.49,0,0,0,.34.14Zm4.52.38,2.63.36a.38.38,0,0,0,.31-.08.4.4,0,0,0,.17-.28.42.42,0,0,0-.09-.31.38.38,0,0,0-.27-.16l-2-.28.52-3.76a.51.51,0,0,0-.11-.41.55.55,0,0,0-.76-.11.57.57,0,0,0-.22.37l-.56,4.13a.47.47,0,0,0,.06.37.48.48,0,0,0,.34.16Z" transform="translate(-174.91 -42.66)"/><path class="cls-133" d="M216.44,80.09l-.3,2.18a.47.47,0,0,0,.06.37.48.48,0,0,0,.34.16l2.63.36a.38.38,0,0,0,.31-.08.4.4,0,0,0,.17-.28.42.42,0,0,0-.09-.31.38.38,0,0,0-.27-.16l-2-.28.25-1.82-1.08-.14Zm-4.85,1.83a.46.46,0,0,0,.09.36.49.49,0,0,0,.34.14l2.78.19a.37.37,0,0,0,.3-.1.4.4,0,0,0,.14-.29.38.38,0,0,0-.1-.3.44.44,0,0,0-.28-.14l-2.17-.14.09-1.34,1.7.12a.41.41,0,0,0,.42-.38.41.41,0,0,0,0-.11c-1-.09-2.08-.16-3.15-.21l-.15,2.2Zm-4-.14a.84.84,0,0,0,.33.45.88.88,0,0,0,.54.18,1,1,0,0,0,.55-.18.84.84,0,0,0,.32-.45l.69-2.11-.94,0-.21.7c-.06.2-.11.42-.16.63h0a.52.52,0,0,0,0,.11.75.75,0,0,1,0,.16l0,.1h-.24l0-.1,0-.15,0-.12h0c0-.21-.1-.42-.16-.63l-.22-.7-1,0,.72,2.11Zm-5.56.37a.46.46,0,0,0,.14.34.47.47,0,0,0,.36.1l2.78-.19a.44.44,0,0,0,.28-.14.43.43,0,0,0,.1-.31.4.4,0,0,0-.14-.28.37.37,0,0,0-.3-.1l-2.17.15L203,80.38l1.7-.11a.4.4,0,0,0,.27-.14.45.45,0,0,0,.1-.29.35.35,0,0,0,0-.11c-1.07,0-2.13.13-3.15.22l.15,2.2Zm-.93.44a.41.41,0,0,0,.08-.32A.37.37,0,0,0,201,82a.38.38,0,0,0-.31-.09l-2,.28-.25-1.82-1.09.17.3,2.17a.47.47,0,0,0,.16.33.49.49,0,0,0,.37.07l2.64-.36a.42.42,0,0,0,.27-.16Z" transform="translate(-174.91 -42.66)"/><path class="cls-134" d="M199.69,80.54a2.32,2.32,0,1,1-2.32-2.32A2.32,2.32,0,0,1,199.69,80.54Z" transform="translate(-174.91 -42.66)"/><circle class="cls-135" cx="34.74" cy="38.29" r="1.65"/><path class="cls-136" d="M218.09,80.09a1.65,1.65,0,1,1-1.65-1.65A1.65,1.65,0,0,1,218.09,80.09Z" transform="translate(-174.91 -42.66)"/></g></g></svg>